<?xml version="1.0" encoding="UTF-8" standalone="no"?>
<!DOCTYPE svg PUBLIC "-//W3C//DTD SVG 1.1//EN"
 "http://www.w3.org/Graphics/SVG/1.1/DTD/svg11.dtd">
<!-- Generated by graphviz version 2.43.0 (0)
 -->
<!-- Title: %3 Pages: 1 -->
<svg width="1326pt" height="1086pt"
 viewBox="0.00 0.00 1325.76 1086.11" xmlns="http://www.w3.org/2000/svg" xmlns:xlink="http://www.w3.org/1999/xlink">
<g id="graph0" class="graph" transform="scale(1 1) rotate(0) translate(4 1082.11)">
<title>%3</title>
<polygon fill="white" stroke="transparent" points="-4,4 -4,-1082.11 1321.76,-1082.11 1321.76,4 -4,4"/>
<!-- der: 2 -->
<g id="node1" class="node">
<title>der: 2</title>
<ellipse fill="none" stroke="black" cx="189.49" cy="-694.79" rx="38.19" ry="18"/>
<text text-anchor="middle" x="189.49" y="-691.09" font-family="Times,serif" font-size="14.00">der: 2</text>
</g>
<!-- 3/_e_ -->
<g id="node2" class="node">
<title>3/_e_</title>
<ellipse fill="none" stroke="black" cx="213.38" cy="-850.54" rx="33.6" ry="18"/>
<text text-anchor="middle" x="213.38" y="-846.84" font-family="Times,serif" font-size="14.00">3/_e_</text>
</g>
<!-- der: 2&#45;&#45;3/_e_ -->
<g id="edge1" class="edge">
<title>der: 2&#45;&#45;3/_e_</title>
<path fill="none" stroke="black" d="M192.27,-712.96C196.88,-742.97 206.02,-802.55 210.61,-832.49"/>
</g>
<!-- 4/_e_ -->
<g id="node3" class="node">
<title>4/_e_</title>
<ellipse fill="none" stroke="black" cx="33.8" cy="-670.55" rx="33.6" ry="18"/>
<text text-anchor="middle" x="33.8" y="-666.85" font-family="Times,serif" font-size="14.00">4/_e_</text>
</g>
<!-- der: 2&#45;&#45;4/_e_ -->
<g id="edge2" class="edge">
<title>der: 2&#45;&#45;4/_e_</title>
<path fill="none" stroke="black" d="M152.98,-689.1C126.74,-685.02 91.66,-679.56 66.37,-675.62"/>
</g>
<!-- 7/d__ -->
<g id="node4" class="node">
<title>7/d__</title>
<ellipse fill="none" stroke="black" cx="298.92" cy="-587.02" rx="34.39" ry="18"/>
<text text-anchor="middle" x="298.92" y="-583.32" font-family="Times,serif" font-size="14.00">7/d__</text>
</g>
<!-- der: 2&#45;&#45;7/d__ -->
<g id="edge3" class="edge">
<title>der: 2&#45;&#45;7/d__</title>
<path fill="none" stroke="black" d="M206.11,-678.42C226.79,-658.05 261.91,-623.47 282.5,-603.19"/>
</g>
<!-- die: 1 -->
<g id="node5" class="node">
<title>die: 1</title>
<ellipse fill="none" stroke="black" cx="406.08" cy="-486.44" rx="36.29" ry="18"/>
<text text-anchor="middle" x="406.08" y="-482.74" font-family="Times,serif" font-size="14.00">die: 1</text>
</g>
<!-- die: 1&#45;&#45;7/d__ -->
<g id="edge5" class="edge">
<title>die: 1&#45;&#45;7/d__</title>
<path fill="none" stroke="black" d="M388.87,-502.6C368.75,-521.48 335.68,-552.51 315.74,-571.23"/>
</g>
<!-- 5/_i_ -->
<g id="node6" class="node">
<title>5/_i_</title>
<ellipse fill="none" stroke="black" cx="509.68" cy="-384.19" rx="31.4" ry="18"/>
<text text-anchor="middle" x="509.68" y="-380.49" font-family="Times,serif" font-size="14.00">5/_i_</text>
</g>
<!-- die: 1&#45;&#45;5/_i_ -->
<g id="edge4" class="edge">
<title>die: 1&#45;&#45;5/_i_</title>
<path fill="none" stroke="black" d="M422.73,-470.02C442.29,-450.71 474.51,-418.9 493.76,-399.9"/>
</g>
<!-- ist: 1 -->
<g id="node7" class="node">
<title>ist: 1</title>
<ellipse fill="none" stroke="black" cx="740.29" cy="-18" rx="34.39" ry="18"/>
<text text-anchor="middle" x="740.29" y="-14.3" font-family="Times,serif" font-size="14.00">ist: 1</text>
</g>
<!-- 2/__t -->
<g id="node8" class="node">
<title>2/__t</title>
<ellipse fill="none" stroke="black" cx="679.13" cy="-149.31" rx="32.49" ry="18"/>
<text text-anchor="middle" x="679.13" y="-145.61" font-family="Times,serif" font-size="14.00">2/__t</text>
</g>
<!-- ist: 1&#45;&#45;2/__t -->
<g id="edge6" class="edge">
<title>ist: 1&#45;&#45;2/__t</title>
<path fill="none" stroke="black" d="M732.04,-35.71C720.37,-60.77 699.15,-106.33 687.44,-131.47"/>
</g>
<!-- mit: 1 -->
<g id="node9" class="node">
<title>mit: 1</title>
<ellipse fill="none" stroke="black" cx="601.93" cy="-272.08" rx="38.19" ry="18"/>
<text text-anchor="middle" x="601.93" y="-268.38" font-family="Times,serif" font-size="14.00">mit: 1</text>
</g>
<!-- mit: 1&#45;&#45;5/_i_ -->
<g id="edge8" class="edge">
<title>mit: 1&#45;&#45;5/_i_</title>
<path fill="none" stroke="black" d="M587.92,-289.11C570.38,-310.42 540.54,-346.69 523.22,-367.73"/>
</g>
<!-- mit: 1&#45;&#45;2/__t -->
<g id="edge7" class="edge">
<title>mit: 1&#45;&#45;2/__t</title>
<path fill="none" stroke="black" d="M612.83,-254.75C627.54,-231.35 653.6,-189.91 668.28,-166.56"/>
</g>
<!-- und: 1 -->
<g id="node10" class="node">
<title>und: 1</title>
<ellipse fill="none" stroke="black" cx="832.3" cy="-543.28" rx="40.09" ry="18"/>
<text text-anchor="middle" x="832.3" y="-539.58" font-family="Times,serif" font-size="14.00">und: 1</text>
</g>
<!-- 6/_n_ -->
<g id="node11" class="node">
<title>6/_n_</title>
<ellipse fill="none" stroke="black" cx="974.72" cy="-522" rx="34.39" ry="18"/>
<text text-anchor="middle" x="974.72" y="-518.3" font-family="Times,serif" font-size="14.00">6/_n_</text>
</g>
<!-- und: 1&#45;&#45;6/_n_ -->
<g id="edge9" class="edge">
<title>und: 1&#45;&#45;6/_n_</title>
<path fill="none" stroke="black" d="M870.84,-537.52C892.91,-534.22 920.34,-530.12 941.47,-526.97"/>
</g>
<!-- von: 2 -->
<g id="node12" class="node">
<title>von: 2</title>
<ellipse fill="none" stroke="black" cx="508.23" cy="-948.77" rx="38.99" ry="18"/>
<text text-anchor="middle" x="508.23" y="-945.07" font-family="Times,serif" font-size="14.00">von: 2</text>
</g>
<!-- 0/__n -->
<g id="node13" class="node">
<title>0/__n</title>
<ellipse fill="none" stroke="black" cx="600.92" cy="-1060.11" rx="34.39" ry="18"/>
<text text-anchor="middle" x="600.92" y="-1056.41" font-family="Times,serif" font-size="14.00">0/__n</text>
</g>
<!-- von: 2&#45;&#45;0/__n -->
<g id="edge10" class="edge">
<title>von: 2&#45;&#45;0/__n</title>
<path fill="none" stroke="black" d="M522.31,-965.68C539.83,-986.73 569.57,-1022.45 587.01,-1043.4"/>
</g>
<!-- 1/__n -->
<g id="node14" class="node">
<title>1/__n</title>
<ellipse fill="none" stroke="black" cx="466.45" cy="-810" rx="34.39" ry="18"/>
<text text-anchor="middle" x="466.45" y="-806.3" font-family="Times,serif" font-size="14.00">1/__n</text>
</g>
<!-- von: 2&#45;&#45;1/__n -->
<g id="edge11" class="edge">
<title>von: 2&#45;&#45;1/__n</title>
<path fill="none" stroke="black" d="M502.85,-930.92C494.83,-904.27 479.81,-854.4 471.8,-827.79"/>
</g>
<!-- besonders: 1 -->
<g id="node15" class="node">
<title>besonders: 1</title>
<ellipse fill="none" stroke="black" cx="466.19" cy="-75.28" rx="70.39" ry="18"/>
<text text-anchor="middle" x="466.19" y="-71.58" font-family="Times,serif" font-size="14.00">besonders: 1</text>
</g>
<!-- 8/_________ -->
<g id="node16" class="node">
<title>8/_________</title>
<ellipse fill="none" stroke="black" cx="608.61" cy="-54" rx="59.29" ry="18"/>
<text text-anchor="middle" x="608.61" y="-50.3" font-family="Times,serif" font-size="14.00">8/_________</text>
</g>
<!-- besonders: 1&#45;&#45;8/_________ -->
<g id="edge12" class="edge">
<title>besonders: 1&#45;&#45;8/_________</title>
<path fill="none" stroke="black" d="M527.01,-66.19C536.38,-64.79 546,-63.35 555.2,-61.98"/>
</g>
<!-- Informatik: 1 -->
<g id="node17" class="node">
<title>Informatik: 1</title>
<ellipse fill="none" stroke="black" cx="359.49" cy="-183.28" rx="71.49" ry="18"/>
<text text-anchor="middle" x="359.49" y="-179.58" font-family="Times,serif" font-size="14.00">Informatik: 1</text>
</g>
<!-- 9/__________ -->
<g id="node18" class="node">
<title>9/__________</title>
<ellipse fill="none" stroke="black" cx="501.91" cy="-162" rx="63.89" ry="18"/>
<text text-anchor="middle" x="501.91" y="-158.3" font-family="Times,serif" font-size="14.00">9/__________</text>
</g>
<!-- Informatik: 1&#45;&#45;9/__________ -->
<g id="edge13" class="edge">
<title>Informatik: 1&#45;&#45;9/__________</title>
<path fill="none" stroke="black" d="M421.13,-174.07C429.25,-172.86 437.54,-171.62 445.56,-170.42"/>
</g>
<!-- Darstellung: 1 -->
<g id="node19" class="node">
<title>Darstellung: 1</title>
<ellipse fill="none" stroke="black" cx="729.89" cy="-450" rx="77.19" ry="18"/>
<text text-anchor="middle" x="729.89" y="-446.3" font-family="Times,serif" font-size="14.00">Darstellung: 1</text>
</g>
<!-- 10/__________g -->
<g id="node20" class="node">
<title>10/__________g</title>
<ellipse fill="none" stroke="black" cx="637.98" cy="-571.44" rx="75.29" ry="18"/>
<text text-anchor="middle" x="637.98" y="-567.74" font-family="Times,serif" font-size="14.00">10/__________g</text>
</g>
<!-- Darstellung: 1&#45;&#45;10/__________g -->
<g id="edge14" class="edge">
<title>Darstellung: 1&#45;&#45;10/__________g</title>
<path fill="none" stroke="black" d="M716.33,-467.92C698.95,-490.88 669,-530.45 651.6,-553.45"/>
</g>
<!-- Speicherung: 1 -->
<g id="node21" class="node">
<title>Speicherung: 1</title>
<ellipse fill="none" stroke="black" cx="477.24" cy="-570.17" rx="81.49" ry="18"/>
<text text-anchor="middle" x="477.24" y="-566.47" font-family="Times,serif" font-size="14.00">Speicherung: 1</text>
</g>
<!-- Speicherung: 1&#45;&#45;10/__________g -->
<g id="edge15" class="edge">
<title>Speicherung: 1&#45;&#45;10/__________g</title>
<path fill="none" stroke="black" d="M558.55,-570.81C559.8,-570.82 561.05,-570.83 562.29,-570.84"/>
</g>
<!-- 12/__e________ -->
<g id="node22" class="node">
<title>12/__e________</title>
<ellipse fill="none" stroke="black" cx="475.46" cy="-728.71" rx="74.99" ry="18"/>
<text text-anchor="middle" x="475.46" y="-725.01" font-family="Times,serif" font-size="14.00">12/__e________</text>
</g>
<!-- Speicherung: 1&#45;&#45;12/__e________ -->
<g id="edge16" class="edge">
<title>Speicherung: 1&#45;&#45;12/__e________</title>
<path fill="none" stroke="black" d="M477.04,-588.35C476.7,-618.77 476.01,-679.64 475.67,-710.24"/>
</g>
<!-- Übertragung: 1 -->
<g id="node23" class="node">
<title>Übertragung: 1</title>
<ellipse fill="none" stroke="black" cx="636.19" cy="-731.06" rx="83.39" ry="18"/>
<text text-anchor="middle" x="636.19" y="-727.36" font-family="Times,serif" font-size="14.00">Übertragung: 1</text>
</g>
<!-- Übertragung: 1&#45;&#45;10/__________g -->
<g id="edge17" class="edge">
<title>Übertragung: 1&#45;&#45;10/__________g</title>
<path fill="none" stroke="black" d="M636.4,-712.75C636.74,-681.96 637.44,-620.19 637.78,-589.54"/>
</g>
<!-- Übertragung: 1&#45;&#45;12/__e________ -->
<g id="edge19" class="edge">
<title>Übertragung: 1&#45;&#45;12/__e________</title>
<path fill="none" stroke="black" d="M553,-729.84C552.08,-729.83 551.17,-729.82 550.25,-729.8"/>
</g>
<!-- 11/___r_______ -->
<g id="node24" class="node">
<title>11/___r_______</title>
<ellipse fill="none" stroke="black" cx="725.18" cy="-854.65" rx="73.39" ry="18"/>
<text text-anchor="middle" x="725.18" y="-850.95" font-family="Times,serif" font-size="14.00">11/___r_______</text>
</g>
<!-- Übertragung: 1&#45;&#45;11/___r_______ -->
<g id="edge18" class="edge">
<title>Übertragung: 1&#45;&#45;11/___r_______</title>
<path fill="none" stroke="black" d="M649.13,-749.03C666,-772.46 695.34,-813.22 712.22,-836.66"/>
</g>
<!-- Verarbeitung: 2 -->
<g id="node25" class="node">
<title>Verarbeitung: 2</title>
<ellipse fill="none" stroke="black" cx="193.08" cy="-264.77" rx="83.39" ry="18"/>
<text text-anchor="middle" x="193.08" y="-261.07" font-family="Times,serif" font-size="14.00">Verarbeitung: 2</text>
</g>
<!-- 14/___a________ -->
<g id="node26" class="node">
<title>14/___a________</title>
<ellipse fill="none" stroke="black" cx="285.76" cy="-376.11" rx="79.09" ry="18"/>
<text text-anchor="middle" x="285.76" y="-372.41" font-family="Times,serif" font-size="14.00">14/___a________</text>
</g>
<!-- Verarbeitung: 2&#45;&#45;14/___a________ -->
<g id="edge20" class="edge">
<title>Verarbeitung: 2&#45;&#45;14/___a________</title>
<path fill="none" stroke="black" d="M207.97,-282.66C225.26,-303.44 253.63,-337.51 270.91,-358.26"/>
</g>
<!-- 15/___a________ -->
<g id="node27" class="node">
<title>15/___a________</title>
<ellipse fill="none" stroke="black" cx="151.29" cy="-126" rx="79.09" ry="18"/>
<text text-anchor="middle" x="151.29" y="-122.3" font-family="Times,serif" font-size="14.00">15/___a________</text>
</g>
<!-- Verarbeitung: 2&#45;&#45;15/___a________ -->
<g id="edge21" class="edge">
<title>Verarbeitung: 2&#45;&#45;15/___a________</title>
<path fill="none" stroke="black" d="M187.61,-246.63C179.61,-220.04 164.77,-170.75 156.76,-144.15"/>
</g>
<!-- Wissenschaft: 1 -->
<g id="node28" class="node">
<title>Wissenschaft: 1</title>
<ellipse fill="none" stroke="black" cx="119.84" cy="-507.28" rx="83.69" ry="18"/>
<text text-anchor="middle" x="119.84" y="-503.58" font-family="Times,serif" font-size="14.00">Wissenschaft: 1</text>
</g>
<!-- 13/____e_______ -->
<g id="node29" class="node">
<title>13/____e_______</title>
<ellipse fill="none" stroke="black" cx="262.26" cy="-486" rx="79.09" ry="18"/>
<text text-anchor="middle" x="262.26" y="-482.3" font-family="Times,serif" font-size="14.00">13/____e_______</text>
</g>
<!-- Wissenschaft: 1&#45;&#45;13/____e_______ -->
<g id="edge22" class="edge">
<title>Wissenschaft: 1&#45;&#45;13/____e_______</title>
<path fill="none" stroke="black" d="M188.97,-496.95C191.23,-496.61 193.5,-496.27 195.77,-495.93"/>
</g>
<!-- automatischen: 1 -->
<g id="node30" class="node">
<title>automatischen: 1</title>
<ellipse fill="none" stroke="black" cx="1092.25" cy="-241.68" rx="90.98" ry="18"/>
<text text-anchor="middle" x="1092.25" y="-237.98" font-family="Times,serif" font-size="14.00">automatischen: 1</text>
</g>
<!-- 16/______t______ -->
<g id="node31" class="node">
<title>16/______t______</title>
<ellipse fill="none" stroke="black" cx="1235.87" cy="-254.22" rx="81.79" ry="18"/>
<text text-anchor="middle" x="1235.87" y="-250.52" font-family="Times,serif" font-size="14.00">16/______t______</text>
</g>
<!-- automatischen: 1&#45;&#45;16/______t______ -->
<g id="edge23" class="edge">
<title>automatischen: 1&#45;&#45;16/______t______</title>
<path fill="none" stroke="black" d="M1175.79,-248.98C1175.92,-248.99 1176.04,-249 1176.16,-249.01"/>
</g>
<!-- 17/___o_________ -->
<g id="node32" class="node">
<title>17/___o_________</title>
<ellipse fill="none" stroke="black" cx="947.77" cy="-234" rx="83.39" ry="18"/>
<text text-anchor="middle" x="947.77" y="-230.3" font-family="Times,serif" font-size="14.00">17/___o_________</text>
</g>
<!-- automatischen: 1&#45;&#45;17/___o_________ -->
<g id="edge24" class="edge">
<title>automatischen: 1&#45;&#45;17/___o_________</title>
<path fill="none" stroke="black" d="M1004.04,-236.99C1003.93,-236.99 1003.81,-236.98 1003.69,-236.97"/>
</g>
<!-- Informationen: 1 -->
<g id="node33" class="node">
<title>Informationen: 1</title>
<ellipse fill="none" stroke="black" cx="808.39" cy="-273.45" rx="88.28" ry="18"/>
<text text-anchor="middle" x="808.39" y="-269.75" font-family="Times,serif" font-size="14.00">Informationen: 1</text>
</g>
<!-- Informationen: 1&#45;&#45;17/___o_________ -->
<g id="edge25" class="edge">
<title>Informationen: 1&#45;&#45;17/___o_________</title>
<path fill="none" stroke="black" d="M860.29,-258.76C872.37,-255.34 885.2,-251.71 897.22,-248.31"/>
</g>
<!-- systematischen: 1 -->
<g id="node34" class="node">
<title>systematischen: 1</title>
<ellipse fill="none" stroke="black" cx="814.89" cy="-651.28" rx="94.78" ry="18"/>
<text text-anchor="middle" x="814.89" y="-647.58" font-family="Times,serif" font-size="14.00">systematischen: 1</text>
</g>
<!-- 18/______________ -->
<g id="node35" class="node">
<title>18/______________</title>
<ellipse fill="none" stroke="black" cx="957.31" cy="-630" rx="87.18" ry="18"/>
<text text-anchor="middle" x="957.31" y="-626.3" font-family="Times,serif" font-size="14.00">18/______________</text>
</g>
<!-- systematischen: 1&#45;&#45;18/______________ -->
<g id="edge26" class="edge">
<title>systematischen: 1&#45;&#45;18/______________</title>
<path fill="none" stroke="black" d="M889.44,-640.14C889.57,-640.12 889.71,-640.1 889.84,-640.08"/>
</g>
<!-- Digitalrechnern: 1 -->
<g id="node36" class="node">
<title>Digitalrechnern: 1</title>
<ellipse fill="none" stroke="black" cx="851.54" cy="-147.28" rx="95.58" ry="18"/>
<text text-anchor="middle" x="851.54" y="-143.58" font-family="Times,serif" font-size="14.00">Digitalrechnern: 1</text>
</g>
<!-- 19/_______________ -->
<g id="node37" class="node">
<title>19/_______________</title>
<ellipse fill="none" stroke="black" cx="993.96" cy="-126" rx="90.98" ry="18"/>
<text text-anchor="middle" x="993.96" y="-122.3" font-family="Times,serif" font-size="14.00">19/_______________</text>
</g>
<!-- Digitalrechnern: 1&#45;&#45;19/_______________ -->
<g id="edge27" class="edge">
<title>Digitalrechnern: 1&#45;&#45;19/_______________</title>
<path fill="none" stroke="black" d="M926.5,-136.08C926.64,-136.06 926.77,-136.04 926.91,-136.02"/>
</g>
</g>
</svg>
