<?xml version="1.0" encoding="UTF-8" standalone="no"?>
<!DOCTYPE svg PUBLIC "-//W3C//DTD SVG 1.1//EN"
 "http://www.w3.org/Graphics/SVG/1.1/DTD/svg11.dtd">
<!-- Generated by graphviz version 2.43.0 (0)
 -->
<!-- Title: %3 Pages: 1 -->
<svg width="367pt" height="471pt"
 viewBox="0.00 0.00 367.01 471.00" xmlns="http://www.w3.org/2000/svg" xmlns:xlink="http://www.w3.org/1999/xlink">
<g id="graph0" class="graph" transform="scale(1 1) rotate(0) translate(4 467)">
<title>%3</title>
<polygon fill="white" stroke="transparent" points="-4,4 -4,-467 363.01,-467 363.01,4 -4,4"/>
<!-- je: 1 -->
<g id="node1" class="node">
<title>je: 1</title>
<ellipse fill="none" stroke="black" cx="30.55" cy="-18" rx="30.59" ry="18"/>
<text text-anchor="middle" x="30.55" y="-14.3" font-family="Times,serif" font-size="14.00">je: 1</text>
</g>
<!-- 0/__ -->
<g id="node2" class="node">
<title>0/__</title>
<ellipse fill="none" stroke="black" cx="69.58" cy="-157.51" rx="28.7" ry="18"/>
<text text-anchor="middle" x="69.58" y="-153.81" font-family="Times,serif" font-size="14.00">0/__</text>
</g>
<!-- je: 1&#45;&#45;0/__ -->
<g id="edge1" class="edge">
<title>je: 1&#45;&#45;0/__</title>
<path fill="none" stroke="black" d="M35.57,-35.95C43.07,-62.74 57.09,-112.88 64.58,-139.63"/>
</g>
<!-- Oh: 1 -->
<g id="node3" class="node">
<title>Oh: 1</title>
<ellipse fill="none" stroke="black" cx="62.23" cy="-302.04" rx="36" ry="18"/>
<text text-anchor="middle" x="62.23" y="-298.34" font-family="Times,serif" font-size="14.00">Oh: 1</text>
</g>
<!-- Oh: 1&#45;&#45;0/__ -->
<g id="edge2" class="edge">
<title>Oh: 1&#45;&#45;0/__</title>
<path fill="none" stroke="black" d="M63.15,-284.03C64.56,-256.34 67.24,-203.58 68.65,-175.75"/>
</g>
<!-- 1/_h -->
<g id="node4" class="node">
<title>1/_h</title>
<ellipse fill="none" stroke="black" cx="42.84" cy="-445" rx="29.8" ry="18"/>
<text text-anchor="middle" x="42.84" y="-441.3" font-family="Times,serif" font-size="14.00">1/_h</text>
</g>
<!-- Oh: 1&#45;&#45;1/_h -->
<g id="edge3" class="edge">
<title>Oh: 1&#45;&#45;1/_h</title>
<path fill="none" stroke="black" d="M59.78,-320.15C56.05,-347.65 49,-399.63 45.28,-427.04"/>
</g>
<!-- für: 1 -->
<g id="node5" class="node">
<title>für: 1</title>
<ellipse fill="none" stroke="black" cx="172.4" cy="-362.28" rx="36.29" ry="18"/>
<text text-anchor="middle" x="172.4" y="-358.58" font-family="Times,serif" font-size="14.00">für: 1</text>
</g>
<!-- 2/__r -->
<g id="node6" class="node">
<title>2/__r</title>
<ellipse fill="none" stroke="black" cx="314.82" cy="-341" rx="32.49" ry="18"/>
<text text-anchor="middle" x="314.82" y="-337.3" font-family="Times,serif" font-size="14.00">2/__r</text>
</g>
<!-- für: 1&#45;&#45;2/__r -->
<g id="edge4" class="edge">
<title>für: 1&#45;&#45;2/__r</title>
<path fill="none" stroke="black" d="M207.6,-357.02C230.83,-353.55 261,-349.04 283.41,-345.69"/>
</g>
<!-- was: 1 -->
<g id="node7" class="node">
<title>was: 1</title>
<ellipse fill="none" stroke="black" cx="176.3" cy="-158.28" rx="40.09" ry="18"/>
<text text-anchor="middle" x="176.3" y="-154.58" font-family="Times,serif" font-size="14.00">was: 1</text>
</g>
<!-- 3/_a_ -->
<g id="node8" class="node">
<title>3/_a_</title>
<ellipse fill="none" stroke="black" cx="318.72" cy="-137" rx="33.6" ry="18"/>
<text text-anchor="middle" x="318.72" y="-133.3" font-family="Times,serif" font-size="14.00">3/_a_</text>
</g>
<!-- was: 1&#45;&#45;3/_a_ -->
<g id="edge5" class="edge">
<title>was: 1&#45;&#45;3/_a_</title>
<path fill="none" stroke="black" d="M214.84,-152.52C237.08,-149.2 264.75,-145.06 285.94,-141.9"/>
</g>
<!-- eine: 1 -->
<g id="node9" class="node">
<title>eine: 1</title>
<ellipse fill="none" stroke="black" cx="178.25" cy="-294.28" rx="42.49" ry="18"/>
<text text-anchor="middle" x="178.25" y="-290.58" font-family="Times,serif" font-size="14.00">eine: 1</text>
</g>
<!-- 4/___e -->
<g id="node10" class="node">
<title>4/___e</title>
<ellipse fill="none" stroke="black" cx="320.67" cy="-273" rx="38.19" ry="18"/>
<text text-anchor="middle" x="320.67" y="-269.3" font-family="Times,serif" font-size="14.00">4/___e</text>
</g>
<!-- eine: 1&#45;&#45;4/___e -->
<g id="edge6" class="edge">
<title>eine: 1&#45;&#45;4/___e</title>
<path fill="none" stroke="black" d="M218.3,-288.29C238.87,-285.22 263.75,-281.5 283.84,-278.5"/>
</g>
<!-- Arbeit: 1 -->
<g id="node11" class="node">
<title>Arbeit: 1</title>
<ellipse fill="none" stroke="black" cx="153.35" cy="-226.28" rx="51.19" ry="18"/>
<text text-anchor="middle" x="153.35" y="-222.58" font-family="Times,serif" font-size="14.00">Arbeit: 1</text>
</g>
<!-- 5/__b___ -->
<g id="node12" class="node">
<title>5/__b___</title>
<ellipse fill="none" stroke="black" cx="295.76" cy="-205" rx="47.39" ry="18"/>
<text text-anchor="middle" x="295.76" y="-201.3" font-family="Times,serif" font-size="14.00">5/__b___</text>
</g>
<!-- Arbeit: 1&#45;&#45;5/__b___ -->
<g id="edge7" class="edge">
<title>Arbeit: 1&#45;&#45;5/__b___</title>
<path fill="none" stroke="black" d="M200.77,-219.19C217.11,-216.75 235.35,-214.03 251.44,-211.62"/>
</g>
</g>
</svg>
