<?xml version="1.0" encoding="UTF-8" standalone="no"?>
<!DOCTYPE svg PUBLIC "-//W3C//DTD SVG 1.1//EN"
 "http://www.w3.org/Graphics/SVG/1.1/DTD/svg11.dtd">
<!-- Generated by graphviz version 2.43.0 (0)
 -->
<!-- Title: %3 Pages: 1 -->
<svg width="872pt" height="721pt"
 viewBox="0.00 0.00 871.66 721.28" xmlns="http://www.w3.org/2000/svg" xmlns:xlink="http://www.w3.org/1999/xlink">
<g id="graph0" class="graph" transform="scale(1 1) rotate(0) translate(4 717.28)">
<title>%3</title>
<polygon fill="white" stroke="transparent" points="-4,4 -4,-717.28 867.66,-717.28 867.66,4 -4,4"/>
<!-- er: 1 -->
<g id="node1" class="node">
<title>er: 1</title>
<ellipse fill="none" stroke="black" cx="416.5" cy="-695.28" rx="32.49" ry="18"/>
<text text-anchor="middle" x="416.5" y="-691.58" font-family="Times,serif" font-size="14.00">er: 1</text>
</g>
<!-- 1/_r -->
<g id="node2" class="node">
<title>1/_r</title>
<ellipse fill="none" stroke="black" cx="558.92" cy="-674" rx="28.7" ry="18"/>
<text text-anchor="middle" x="558.92" y="-670.3" font-family="Times,serif" font-size="14.00">1/_r</text>
</g>
<!-- er: 1&#45;&#45;1/_r -->
<g id="edge1" class="edge">
<title>er: 1&#45;&#45;1/_r</title>
<path fill="none" stroke="black" d="M448.1,-690.56C472.85,-686.86 506.96,-681.76 530.77,-678.2"/>
</g>
<!-- in: 1 -->
<g id="node3" class="node">
<title>in: 1</title>
<ellipse fill="none" stroke="black" cx="47.2" cy="-695.28" rx="31.4" ry="18"/>
<text text-anchor="middle" x="47.2" y="-691.58" font-family="Times,serif" font-size="14.00">in: 1</text>
</g>
<!-- 0/_n -->
<g id="node4" class="node">
<title>0/_n</title>
<ellipse fill="none" stroke="black" cx="189.62" cy="-674" rx="29.8" ry="18"/>
<text text-anchor="middle" x="189.62" y="-670.3" font-family="Times,serif" font-size="14.00">0/_n</text>
</g>
<!-- in: 1&#45;&#45;0/_n -->
<g id="edge2" class="edge">
<title>in: 1&#45;&#45;0/_n</title>
<path fill="none" stroke="black" d="M77.4,-690.77C101.9,-687.11 136.21,-681.98 160.43,-678.36"/>
</g>
<!-- zu: 1 -->
<g id="node5" class="node">
<title>zu: 1</title>
<ellipse fill="none" stroke="black" cx="33.15" cy="-39.28" rx="33.29" ry="18"/>
<text text-anchor="middle" x="33.15" y="-35.58" font-family="Times,serif" font-size="14.00">zu: 1</text>
</g>
<!-- 2/_u -->
<g id="node6" class="node">
<title>2/_u</title>
<ellipse fill="none" stroke="black" cx="175.57" cy="-18" rx="29.8" ry="18"/>
<text text-anchor="middle" x="175.57" y="-14.3" font-family="Times,serif" font-size="14.00">2/_u</text>
</g>
<!-- zu: 1&#45;&#45;2/_u -->
<g id="edge3" class="edge">
<title>zu: 1&#45;&#45;2/_u</title>
<path fill="none" stroke="black" d="M65.11,-34.5C89.38,-30.88 122.51,-25.93 146.14,-22.4"/>
</g>
<!-- Als: 1 -->
<g id="node7" class="node">
<title>Als: 1</title>
<ellipse fill="none" stroke="black" cx="388.4" cy="-103.28" rx="36.29" ry="18"/>
<text text-anchor="middle" x="388.4" y="-99.58" font-family="Times,serif" font-size="14.00">Als: 1</text>
</g>
<!-- 3/__s -->
<g id="node8" class="node">
<title>3/__s</title>
<ellipse fill="none" stroke="black" cx="530.82" cy="-82" rx="33.29" ry="18"/>
<text text-anchor="middle" x="530.82" y="-78.3" font-family="Times,serif" font-size="14.00">3/__s</text>
</g>
<!-- Als: 1&#45;&#45;3/__s -->
<g id="edge4" class="edge">
<title>Als: 1&#45;&#45;3/__s</title>
<path fill="none" stroke="black" d="M423.6,-98.02C446.5,-94.6 476.14,-90.17 498.45,-86.84"/>
</g>
<!-- aus: 1 -->
<g id="node9" class="node">
<title>aus: 1</title>
<ellipse fill="none" stroke="black" cx="662.35" cy="-295.28" rx="38.19" ry="18"/>
<text text-anchor="middle" x="662.35" y="-291.58" font-family="Times,serif" font-size="14.00">aus: 1</text>
</g>
<!-- 4/_u_ -->
<g id="node10" class="node">
<title>4/_u_</title>
<ellipse fill="none" stroke="black" cx="804.77" cy="-274" rx="34.39" ry="18"/>
<text text-anchor="middle" x="804.77" y="-270.3" font-family="Times,serif" font-size="14.00">4/_u_</text>
</g>
<!-- aus: 1&#45;&#45;4/_u_ -->
<g id="edge5" class="edge">
<title>aus: 1&#45;&#45;4/_u_</title>
<path fill="none" stroke="black" d="M699.02,-289.8C721.44,-286.45 749.88,-282.2 771.62,-278.95"/>
</g>
<!-- Bett: 1 -->
<g id="node11" class="node">
<title>Bett: 1</title>
<ellipse fill="none" stroke="black" cx="666.25" cy="-663.28" rx="42.49" ry="18"/>
<text text-anchor="middle" x="666.25" y="-659.58" font-family="Times,serif" font-size="14.00">Bett: 1</text>
</g>
<!-- 5/___t -->
<g id="node12" class="node">
<title>5/___t</title>
<ellipse fill="none" stroke="black" cx="808.67" cy="-642" rx="36.29" ry="18"/>
<text text-anchor="middle" x="808.67" y="-638.3" font-family="Times,serif" font-size="14.00">5/___t</text>
</g>
<!-- Bett: 1&#45;&#45;5/___t -->
<g id="edge6" class="edge">
<title>Bett: 1&#45;&#45;5/___t</title>
<path fill="none" stroke="black" d="M706.3,-657.29C727.52,-654.12 753.35,-650.26 773.75,-647.22"/>
</g>
<!-- fand: 1 -->
<g id="node13" class="node">
<title>fand: 1</title>
<ellipse fill="none" stroke="black" cx="682.9" cy="-199.28" rx="42.79" ry="18"/>
<text text-anchor="middle" x="682.9" y="-195.58" font-family="Times,serif" font-size="14.00">fand: 1</text>
</g>
<!-- 6/_a__ -->
<g id="node14" class="node">
<title>6/_a__</title>
<ellipse fill="none" stroke="black" cx="825.32" cy="-178" rx="38.19" ry="18"/>
<text text-anchor="middle" x="825.32" y="-174.3" font-family="Times,serif" font-size="14.00">6/_a__</text>
</g>
<!-- fand: 1&#45;&#45;6/_a__ -->
<g id="edge7" class="edge">
<title>fand: 1&#45;&#45;6/_a__</title>
<path fill="none" stroke="black" d="M723.33,-193.24C743.89,-190.17 768.68,-186.46 788.68,-183.47"/>
</g>
<!-- sich: 1 -->
<g id="node15" class="node">
<title>sich: 1</title>
<ellipse fill="none" stroke="black" cx="632.95" cy="-55.28" rx="40.89" ry="18"/>
<text text-anchor="middle" x="632.95" y="-51.58" font-family="Times,serif" font-size="14.00">sich: 1</text>
</g>
<!-- 7/s___ -->
<g id="node16" class="node">
<title>7/s___</title>
<ellipse fill="none" stroke="black" cx="775.37" cy="-34" rx="37.89" ry="18"/>
<text text-anchor="middle" x="775.37" y="-30.3" font-family="Times,serif" font-size="14.00">7/s___</text>
</g>
<!-- sich: 1&#45;&#45;7/s___ -->
<g id="edge8" class="edge">
<title>sich: 1&#45;&#45;7/s___</title>
<path fill="none" stroke="black" d="M671.86,-49.46C692.78,-46.34 718.42,-42.51 738.94,-39.44"/>
</g>
<!-- einem: 1 -->
<g id="node17" class="node">
<title>einem: 1</title>
<ellipse fill="none" stroke="black" cx="394.65" cy="-313.68" rx="50.89" ry="18"/>
<text text-anchor="middle" x="394.65" y="-309.98" font-family="Times,serif" font-size="14.00">einem: 1</text>
</g>
<!-- 8/____m -->
<g id="node18" class="node">
<title>8/____m</title>
<ellipse fill="none" stroke="black" cx="538.27" cy="-326.22" rx="46.29" ry="18"/>
<text text-anchor="middle" x="538.27" y="-322.52" font-family="Times,serif" font-size="14.00">8/____m</text>
</g>
<!-- einem: 1&#45;&#45;8/____m -->
<g id="edge9" class="edge">
<title>einem: 1&#45;&#45;8/____m</title>
<path fill="none" stroke="black" d="M444.08,-318C459.98,-319.39 477.51,-320.92 493.1,-322.28"/>
</g>
<!-- 10/e____ -->
<g id="node19" class="node">
<title>10/e____</title>
<ellipse fill="none" stroke="black" cx="250.17" cy="-306" rx="48.19" ry="18"/>
<text text-anchor="middle" x="250.17" y="-302.3" font-family="Times,serif" font-size="14.00">10/e____</text>
</g>
<!-- einem: 1&#45;&#45;10/e____ -->
<g id="edge10" class="edge">
<title>einem: 1&#45;&#45;10/e____</title>
<path fill="none" stroke="black" d="M344.12,-311C329.15,-310.2 312.8,-309.33 298.01,-308.54"/>
</g>
<!-- eines: 1 -->
<g id="node20" class="node">
<title>eines: 1</title>
<ellipse fill="none" stroke="black" cx="110.8" cy="-345.45" rx="46.59" ry="18"/>
<text text-anchor="middle" x="110.8" y="-341.75" font-family="Times,serif" font-size="14.00">eines: 1</text>
</g>
<!-- eines: 1&#45;&#45;10/e____ -->
<g id="edge11" class="edge">
<title>eines: 1&#45;&#45;10/e____</title>
<path fill="none" stroke="black" d="M148.51,-334.77C168.02,-329.25 191.8,-322.52 211.45,-316.96"/>
</g>
<!-- Samsa: 1 -->
<g id="node21" class="node">
<title>Samsa: 1</title>
<ellipse fill="none" stroke="black" cx="133.3" cy="-119.28" rx="53.09" ry="18"/>
<text text-anchor="middle" x="133.3" y="-115.58" font-family="Times,serif" font-size="14.00">Samsa: 1</text>
</g>
<!-- 9/_a___ -->
<g id="node22" class="node">
<title>9/_a___</title>
<ellipse fill="none" stroke="black" cx="275.71" cy="-98" rx="42.49" ry="18"/>
<text text-anchor="middle" x="275.71" y="-94.3" font-family="Times,serif" font-size="14.00">9/_a___</text>
</g>
<!-- Samsa: 1&#45;&#45;9/_a___ -->
<g id="edge12" class="edge">
<title>Samsa: 1&#45;&#45;9/_a___</title>
<path fill="none" stroke="black" d="M182.31,-111.96C199.69,-109.36 219.03,-106.47 235.58,-104"/>
</g>
<!-- Gregor: 1 -->
<g id="node23" class="node">
<title>Gregor: 1</title>
<ellipse fill="none" stroke="black" cx="311.25" cy="-615.28" rx="55.49" ry="18"/>
<text text-anchor="middle" x="311.25" y="-611.58" font-family="Times,serif" font-size="14.00">Gregor: 1</text>
</g>
<!-- 12/__e___ -->
<g id="node24" class="node">
<title>12/__e___</title>
<ellipse fill="none" stroke="black" cx="453.66" cy="-594" rx="52.79" ry="18"/>
<text text-anchor="middle" x="453.66" y="-590.3" font-family="Times,serif" font-size="14.00">12/__e___</text>
</g>
<!-- Gregor: 1&#45;&#45;12/__e___ -->
<g id="edge13" class="edge">
<title>Gregor: 1&#45;&#45;12/__e___</title>
<path fill="none" stroke="black" d="M361.86,-607.72C375.93,-605.61 391.17,-603.34 405.12,-601.25"/>
</g>
<!-- seinem: 1 -->
<g id="node25" class="node">
<title>seinem: 1</title>
<ellipse fill="none" stroke="black" cx="151.9" cy="-455.28" rx="55.79" ry="18"/>
<text text-anchor="middle" x="151.9" y="-451.58" font-family="Times,serif" font-size="14.00">seinem: 1</text>
</g>
<!-- 11/_____m -->
<g id="node26" class="node">
<title>11/_____m</title>
<ellipse fill="none" stroke="black" cx="294.31" cy="-434" rx="55.79" ry="18"/>
<text text-anchor="middle" x="294.31" y="-430.3" font-family="Times,serif" font-size="14.00">11/_____m</text>
</g>
<!-- seinem: 1&#45;&#45;11/_____m -->
<g id="edge14" class="edge">
<title>seinem: 1&#45;&#45;11/_____m</title>
<path fill="none" stroke="black" d="M202.91,-447.66C216,-445.7 230.08,-443.6 243.18,-441.64"/>
</g>
<!-- Morgens: 1 -->
<g id="node27" class="node">
<title>Morgens: 1</title>
<ellipse fill="none" stroke="black" cx="239.69" cy="-535.28" rx="63.89" ry="18"/>
<text text-anchor="middle" x="239.69" y="-531.58" font-family="Times,serif" font-size="14.00">Morgens: 1</text>
</g>
<!-- 13/_____n_ -->
<g id="node28" class="node">
<title>13/_____n_</title>
<ellipse fill="none" stroke="black" cx="382.11" cy="-514" rx="57.69" ry="18"/>
<text text-anchor="middle" x="382.11" y="-510.3" font-family="Times,serif" font-size="14.00">13/_____n_</text>
</g>
<!-- Morgens: 1&#45;&#45;13/_____n_ -->
<g id="edge15" class="edge">
<title>Morgens: 1&#45;&#45;13/_____n_</title>
<path fill="none" stroke="black" d="M296.39,-526.81C307.41,-525.16 318.91,-523.44 329.77,-521.82"/>
</g>
<!-- Träumen: 1 -->
<g id="node29" class="node">
<title>Träumen: 1</title>
<ellipse fill="none" stroke="black" cx="607.69" cy="-583.28" rx="63.89" ry="18"/>
<text text-anchor="middle" x="607.69" y="-579.58" font-family="Times,serif" font-size="14.00">Träumen: 1</text>
</g>
<!-- 14/____m__ -->
<g id="node30" class="node">
<title>14/____m__</title>
<ellipse fill="none" stroke="black" cx="750.11" cy="-562" rx="60.39" ry="18"/>
<text text-anchor="middle" x="750.11" y="-558.3" font-family="Times,serif" font-size="14.00">14/____m__</text>
</g>
<!-- Träumen: 1&#45;&#45;14/____m__ -->
<g id="edge16" class="edge">
<title>Träumen: 1&#45;&#45;14/____m__</title>
<path fill="none" stroke="black" d="M664.39,-574.81C674.79,-573.25 685.61,-571.64 695.93,-570.1"/>
</g>
<!-- erwachte: 1 -->
<g id="node31" class="node">
<title>erwachte: 1</title>
<ellipse fill="none" stroke="black" cx="545.64" cy="-151.28" rx="65.79" ry="18"/>
<text text-anchor="middle" x="545.64" y="-147.58" font-family="Times,serif" font-size="14.00">erwachte: 1</text>
</g>
<!-- 15/________ -->
<g id="node32" class="node">
<title>15/________</title>
<ellipse fill="none" stroke="black" cx="688.06" cy="-130" rx="60.39" ry="18"/>
<text text-anchor="middle" x="688.06" y="-126.3" font-family="Times,serif" font-size="14.00">15/________</text>
</g>
<!-- erwachte: 1&#45;&#45;15/________ -->
<g id="edge17" class="edge">
<title>erwachte: 1&#45;&#45;15/________</title>
<path fill="none" stroke="black" d="M603.57,-142.62C613.58,-141.13 623.96,-139.58 633.87,-138.1"/>
</g>
<!-- unruhigen: 1 -->
<g id="node33" class="node">
<title>unruhigen: 1</title>
<ellipse fill="none" stroke="black" cx="406.19" cy="-247.28" rx="70.39" ry="18"/>
<text text-anchor="middle" x="406.19" y="-243.58" font-family="Times,serif" font-size="14.00">unruhigen: 1</text>
</g>
<!-- 16/_________ -->
<g id="node34" class="node">
<title>16/_________</title>
<ellipse fill="none" stroke="black" cx="548.61" cy="-226" rx="64.99" ry="18"/>
<text text-anchor="middle" x="548.61" y="-222.3" font-family="Times,serif" font-size="14.00">16/_________</text>
</g>
<!-- unruhigen: 1&#45;&#45;16/_________ -->
<g id="edge18" class="edge">
<title>unruhigen: 1&#45;&#45;16/_________</title>
<path fill="none" stroke="black" d="M467.01,-238.19C475.02,-237 483.21,-235.77 491.17,-234.58"/>
</g>
<!-- Ungeziefer: 1 -->
<g id="node35" class="node">
<title>Ungeziefer: 1</title>
<ellipse fill="none" stroke="black" cx="537.44" cy="-503.28" rx="73.39" ry="18"/>
<text text-anchor="middle" x="537.44" y="-499.58" font-family="Times,serif" font-size="14.00">Ungeziefer: 1</text>
</g>
<!-- 18/______e___ -->
<g id="node36" class="node">
<title>18/______e___</title>
<ellipse fill="none" stroke="black" cx="679.86" cy="-482" rx="70.39" ry="18"/>
<text text-anchor="middle" x="679.86" y="-478.3" font-family="Times,serif" font-size="14.00">18/______e___</text>
</g>
<!-- Ungeziefer: 1&#45;&#45;18/______e___ -->
<g id="edge19" class="edge">
<title>Ungeziefer: 1&#45;&#45;18/______e___</title>
<path fill="none" stroke="black" d="M600.33,-493.88C606.58,-492.95 612.93,-492 619.17,-491.07"/>
</g>
<!-- verwandelt: 1 -->
<g id="node37" class="node">
<title>verwandelt: 1</title>
<ellipse fill="none" stroke="black" cx="234.74" cy="-199.28" rx="74.99" ry="18"/>
<text text-anchor="middle" x="234.74" y="-195.58" font-family="Times,serif" font-size="14.00">verwandelt: 1</text>
</g>
<!-- 17/_______e__ -->
<g id="node38" class="node">
<title>17/_______e__</title>
<ellipse fill="none" stroke="black" cx="377.16" cy="-178" rx="70.39" ry="18"/>
<text text-anchor="middle" x="377.16" y="-174.3" font-family="Times,serif" font-size="14.00">17/_______e__</text>
</g>
<!-- verwandelt: 1&#45;&#45;17/_______e__ -->
<g id="edge20" class="edge">
<title>verwandelt: 1&#45;&#45;17/_______e__</title>
<path fill="none" stroke="black" d="M298.45,-189.76C304.38,-188.87 310.37,-187.98 316.27,-187.1"/>
</g>
<!-- ungeheueren: 1 -->
<g id="node39" class="node">
<title>ungeheueren: 1</title>
<ellipse fill="none" stroke="black" cx="467.19" cy="-423.28" rx="83.39" ry="18"/>
<text text-anchor="middle" x="467.19" y="-419.58" font-family="Times,serif" font-size="14.00">ungeheueren: 1</text>
</g>
<!-- 19/___________ -->
<g id="node40" class="node">
<title>19/___________</title>
<ellipse fill="none" stroke="black" cx="609.61" cy="-402" rx="73.39" ry="18"/>
<text text-anchor="middle" x="609.61" y="-398.3" font-family="Times,serif" font-size="14.00">19/___________</text>
</g>
<!-- ungeheueren: 1&#45;&#45;19/___________ -->
<g id="edge21" class="edge">
<title>ungeheueren: 1&#45;&#45;19/___________</title>
<path fill="none" stroke="black" d="M535.9,-413.01C539.46,-412.48 543.02,-411.95 546.56,-411.42"/>
</g>
</g>
</svg>
