<?xml version="1.0" encoding="UTF-8" standalone="no"?>
<!DOCTYPE svg PUBLIC "-//W3C//DTD SVG 1.1//EN"
 "http://www.w3.org/Graphics/SVG/1.1/DTD/svg11.dtd">
<!-- Generated by graphviz version 2.43.0 (0)
 -->
<!-- Title: %3 Pages: 1 -->
<svg width="1030pt" height="1051pt"
 viewBox="0.00 0.00 1029.77 1051.27" xmlns="http://www.w3.org/2000/svg" xmlns:xlink="http://www.w3.org/1999/xlink">
<g id="graph0" class="graph" transform="scale(1 1) rotate(0) translate(4 1047.27)">
<title>%3</title>
<polygon fill="white" stroke="transparent" points="-4,4 -4,-1047.27 1025.77,-1047.27 1025.77,4 -4,4"/>
<!-- Am: 1 -->
<g id="node1" class="node">
<title>Am: 1</title>
<ellipse fill="none" stroke="black" cx="298.7" cy="-742.65" rx="37.89" ry="18"/>
<text text-anchor="middle" x="298.7" y="-738.95" font-family="Times,serif" font-size="14.00">Am: 1</text>
</g>
<!-- 0/__ -->
<g id="node2" class="node">
<title>0/__</title>
<ellipse fill="none" stroke="black" cx="343.74" cy="-880.61" rx="28.7" ry="18"/>
<text text-anchor="middle" x="343.74" y="-876.91" font-family="Times,serif" font-size="14.00">0/__</text>
</g>
<!-- Am: 1&#45;&#45;0/__ -->
<g id="edge1" class="edge">
<title>Am: 1&#45;&#45;0/__</title>
<path fill="none" stroke="black" d="M304.58,-760.69C313.22,-787.13 329.21,-836.13 337.85,-862.57"/>
</g>
<!-- 1/_m -->
<g id="node3" class="node">
<title>1/_m</title>
<ellipse fill="none" stroke="black" cx="301.27" cy="-598" rx="32.49" ry="18"/>
<text text-anchor="middle" x="301.27" y="-594.3" font-family="Times,serif" font-size="14.00">1/_m</text>
</g>
<!-- Am: 1&#45;&#45;1/_m -->
<g id="edge2" class="edge">
<title>Am: 1&#45;&#45;1/_m</title>
<path fill="none" stroke="black" d="M299.02,-724.62C299.51,-696.9 300.45,-644.11 300.95,-616.25"/>
</g>
<!-- in: 1 -->
<g id="node4" class="node">
<title>in: 1</title>
<ellipse fill="none" stroke="black" cx="340" cy="-1025.27" rx="31.4" ry="18"/>
<text text-anchor="middle" x="340" y="-1021.57" font-family="Times,serif" font-size="14.00">in: 1</text>
</g>
<!-- in: 1&#45;&#45;0/__ -->
<g id="edge3" class="edge">
<title>in: 1&#45;&#45;0/__</title>
<path fill="none" stroke="black" d="M340.46,-1007.24C341.18,-979.52 342.55,-926.72 343.27,-898.87"/>
</g>
<!-- als: 1 -->
<g id="node5" class="node">
<title>als: 1</title>
<ellipse fill="none" stroke="black" cx="393.86" cy="-535.21" rx="36" ry="18"/>
<text text-anchor="middle" x="393.86" y="-531.51" font-family="Times,serif" font-size="14.00">als: 1</text>
</g>
<!-- 2/___ -->
<g id="node6" class="node">
<title>2/___</title>
<ellipse fill="none" stroke="black" cx="444.22" cy="-362.38" rx="32.49" ry="18"/>
<text text-anchor="middle" x="444.22" y="-358.68" font-family="Times,serif" font-size="14.00">2/___</text>
</g>
<!-- als: 1&#45;&#45;2/___ -->
<g id="edge4" class="edge">
<title>als: 1&#45;&#45;2/___</title>
<path fill="none" stroke="black" d="M399.06,-517.36C408.71,-484.25 429.29,-413.63 438.98,-380.39"/>
</g>
<!-- 3/__s -->
<g id="node7" class="node">
<title>3/__s</title>
<ellipse fill="none" stroke="black" cx="226.48" cy="-477.24" rx="33.29" ry="18"/>
<text text-anchor="middle" x="226.48" y="-473.54" font-family="Times,serif" font-size="14.00">3/__s</text>
</g>
<!-- als: 1&#45;&#45;3/__s -->
<g id="edge5" class="edge">
<title>als: 1&#45;&#45;3/__s</title>
<path fill="none" stroke="black" d="M364.32,-524.98C333.35,-514.25 285.04,-497.52 254.61,-486.99"/>
</g>
<!-- 4/_l_ -->
<g id="node8" class="node">
<title>4/_l_</title>
<ellipse fill="none" stroke="black" cx="420.11" cy="-689.36" rx="31.4" ry="18"/>
<text text-anchor="middle" x="420.11" y="-685.66" font-family="Times,serif" font-size="14.00">4/_l_</text>
</g>
<!-- als: 1&#45;&#45;4/_l_ -->
<g id="edge6" class="edge">
<title>als: 1&#45;&#45;4/_l_</title>
<path fill="none" stroke="black" d="M396.92,-553.19C401.95,-582.74 411.91,-641.23 416.98,-671.01"/>
</g>
<!-- das: 1 -->
<g id="node9" class="node">
<title>das: 1</title>
<ellipse fill="none" stroke="black" cx="333.97" cy="-419.31" rx="38.19" ry="18"/>
<text text-anchor="middle" x="333.97" y="-415.61" font-family="Times,serif" font-size="14.00">das: 1</text>
</g>
<!-- das: 1&#45;&#45;2/___ -->
<g id="edge7" class="edge">
<title>das: 1&#45;&#45;2/___</title>
<path fill="none" stroke="black" d="M359.82,-405.96C378.15,-396.5 402.56,-383.89 420.42,-374.67"/>
</g>
<!-- das: 1&#45;&#45;3/__s -->
<g id="edge8" class="edge">
<title>das: 1&#45;&#45;3/__s</title>
<path fill="none" stroke="black" d="M308.77,-432.89C291.02,-442.46 267.43,-455.17 250.05,-464.54"/>
</g>
<!-- Das: 1 -->
<g id="node10" class="node">
<title>Das: 1</title>
<ellipse fill="none" stroke="black" cx="271.61" cy="-306.11" rx="40.09" ry="18"/>
<text text-anchor="middle" x="271.61" y="-302.41" font-family="Times,serif" font-size="14.00">Das: 1</text>
</g>
<!-- Das: 1&#45;&#45;2/___ -->
<g id="edge9" class="edge">
<title>Das: 1&#45;&#45;2/___</title>
<path fill="none" stroke="black" d="M304.48,-316.83C336.76,-327.35 385.48,-343.23 416.04,-353.2"/>
</g>
<!-- Das: 1&#45;&#45;3/__s -->
<g id="edge10" class="edge">
<title>Das: 1&#45;&#45;3/__s</title>
<path fill="none" stroke="black" d="M266.86,-324.1C258.2,-356.97 239.9,-426.36 231.23,-459.24"/>
</g>
<!-- 6/D__ -->
<g id="node11" class="node">
<title>6/D__</title>
<ellipse fill="none" stroke="black" cx="151.75" cy="-205.07" rx="36" ry="18"/>
<text text-anchor="middle" x="151.75" y="-201.37" font-family="Times,serif" font-size="14.00">6/D__</text>
</g>
<!-- Das: 1&#45;&#45;6/D__ -->
<g id="edge11" class="edge">
<title>Das: 1&#45;&#45;6/D__</title>
<path fill="none" stroke="black" d="M252.62,-290.1C230.04,-271.07 192.62,-239.52 170.26,-220.68"/>
</g>
<!-- die: 1 -->
<g id="node12" class="node">
<title>die: 1</title>
<ellipse fill="none" stroke="black" cx="596.85" cy="-418.53" rx="36.29" ry="18"/>
<text text-anchor="middle" x="596.85" y="-414.83" font-family="Times,serif" font-size="14.00">die: 1</text>
</g>
<!-- die: 1&#45;&#45;2/___ -->
<g id="edge12" class="edge">
<title>die: 1&#45;&#45;2/___</title>
<path fill="none" stroke="black" d="M567.43,-407.7C539.7,-397.51 498.51,-382.35 471.51,-372.42"/>
</g>
<!-- und: 1 -->
<g id="node13" class="node">
<title>und: 1</title>
<ellipse fill="none" stroke="black" cx="525.89" cy="-223.54" rx="40.09" ry="18"/>
<text text-anchor="middle" x="525.89" y="-219.84" font-family="Times,serif" font-size="14.00">und: 1</text>
</g>
<!-- und: 1&#45;&#45;2/___ -->
<g id="edge13" class="edge">
<title>und: 1&#45;&#45;2/___</title>
<path fill="none" stroke="black" d="M515.55,-241.12C499.84,-267.83 470.14,-318.32 454.48,-344.94"/>
</g>
<!-- 5/_n_ -->
<g id="node14" class="node">
<title>5/_n_</title>
<ellipse fill="none" stroke="black" cx="619.95" cy="-105" rx="34.39" ry="18"/>
<text text-anchor="middle" x="619.95" y="-101.3" font-family="Times,serif" font-size="14.00">5/_n_</text>
</g>
<!-- und: 1&#45;&#45;5/_n_ -->
<g id="edge14" class="edge">
<title>und: 1&#45;&#45;5/_n_</title>
<path fill="none" stroke="black" d="M539.37,-206.56C557.25,-184.02 588.63,-144.47 606.5,-121.95"/>
</g>
<!-- sehr: 1 -->
<g id="node15" class="node">
<title>sehr: 1</title>
<ellipse fill="none" stroke="black" cx="767.9" cy="-387.28" rx="42.79" ry="18"/>
<text text-anchor="middle" x="767.9" y="-383.58" font-family="Times,serif" font-size="14.00">sehr: 1</text>
</g>
<!-- 7/____ -->
<g id="node16" class="node">
<title>7/____</title>
<ellipse fill="none" stroke="black" cx="910.32" cy="-366" rx="37.09" ry="18"/>
<text text-anchor="middle" x="910.32" y="-362.3" font-family="Times,serif" font-size="14.00">7/____</text>
</g>
<!-- sehr: 1&#45;&#45;7/____ -->
<g id="edge15" class="edge">
<title>sehr: 1&#45;&#45;7/____</title>
<path fill="none" stroke="black" d="M808.33,-381.24C829.22,-378.12 854.48,-374.34 874.64,-371.33"/>
</g>
<!-- Leute: 1 -->
<g id="node17" class="node">
<title>Leute: 1</title>
<ellipse fill="none" stroke="black" cx="850.71" cy="-589.9" rx="48.99" ry="18"/>
<text text-anchor="middle" x="850.71" y="-586.2" font-family="Times,serif" font-size="14.00">Leute: 1</text>
</g>
<!-- 8/____e -->
<g id="node18" class="node">
<title>8/____e</title>
<ellipse fill="none" stroke="black" cx="788.81" cy="-735.68" rx="42.49" ry="18"/>
<text text-anchor="middle" x="788.81" y="-731.98" font-family="Times,serif" font-size="14.00">8/____e</text>
</g>
<!-- Leute: 1&#45;&#45;8/____e -->
<g id="edge16" class="edge">
<title>Leute: 1&#45;&#45;8/____e</title>
<path fill="none" stroke="black" d="M843.12,-607.77C831.24,-635.75 808.38,-689.59 796.46,-717.66"/>
</g>
<!-- 9/__u__ -->
<g id="node19" class="node">
<title>9/__u__</title>
<ellipse fill="none" stroke="black" cx="908.74" cy="-453" rx="42.79" ry="18"/>
<text text-anchor="middle" x="908.74" y="-449.3" font-family="Times,serif" font-size="14.00">9/__u__</text>
</g>
<!-- Leute: 1&#45;&#45;9/__u__ -->
<g id="edge17" class="edge">
<title>Leute: 1&#45;&#45;9/__u__</title>
<path fill="none" stroke="black" d="M858.29,-572C869.41,-545.76 890.03,-497.14 901.15,-470.9"/>
</g>
<!-- viele: 1 -->
<g id="node20" class="node">
<title>viele: 1</title>
<ellipse fill="none" stroke="black" cx="883.97" cy="-862.29" rx="44.39" ry="18"/>
<text text-anchor="middle" x="883.97" y="-858.59" font-family="Times,serif" font-size="14.00">viele: 1</text>
</g>
<!-- viele: 1&#45;&#45;8/____e -->
<g id="edge18" class="edge">
<title>viele: 1&#45;&#45;8/____e</title>
<path fill="none" stroke="black" d="M870.94,-844.95C852.82,-820.84 820.19,-777.43 801.99,-753.22"/>
</g>
<!-- 10/_i___ -->
<g id="node21" class="node">
<title>10/_i___</title>
<ellipse fill="none" stroke="black" cx="975.62" cy="-979.31" rx="46.29" ry="18"/>
<text text-anchor="middle" x="975.62" y="-975.61" font-family="Times,serif" font-size="14.00">10/_i___</text>
</g>
<!-- viele: 1&#45;&#45;10/_i___ -->
<g id="edge19" class="edge">
<title>viele: 1&#45;&#45;10/_i___</title>
<path fill="none" stroke="black" d="M897.49,-879.55C914.82,-901.68 944.69,-939.81 962.04,-961.97"/>
</g>
<!-- wurde: 2 -->
<g id="node22" class="node">
<title>wurde: 2</title>
<ellipse fill="none" stroke="black" cx="631.66" cy="-755.19" rx="51.99" ry="18"/>
<text text-anchor="middle" x="631.66" y="-751.49" font-family="Times,serif" font-size="14.00">wurde: 2</text>
</g>
<!-- wurde: 2&#45;&#45;8/____e -->
<g id="edge20" class="edge">
<title>wurde: 2&#45;&#45;8/____e</title>
<path fill="none" stroke="black" d="M680.95,-749.07C702.55,-746.39 727.6,-743.28 748.12,-740.73"/>
</g>
<!-- 11/_u___ -->
<g id="node23" class="node">
<title>11/_u___</title>
<ellipse fill="none" stroke="black" cx="483.75" cy="-770.16" rx="48.99" ry="18"/>
<text text-anchor="middle" x="483.75" y="-766.46" font-family="Times,serif" font-size="14.00">11/_u___</text>
</g>
<!-- wurde: 2&#45;&#45;11/_u___ -->
<g id="edge21" class="edge">
<title>wurde: 2&#45;&#45;11/_u___</title>
<path fill="none" stroke="black" d="M581.58,-760.26C565.15,-761.92 546.97,-763.76 530.77,-765.4"/>
</g>
<!-- Anfang: 1 -->
<g id="node24" class="node">
<title>Anfang: 1</title>
<ellipse fill="none" stroke="black" cx="577.25" cy="-648.28" rx="55.49" ry="18"/>
<text text-anchor="middle" x="577.25" y="-644.58" font-family="Times,serif" font-size="14.00">Anfang: 1</text>
</g>
<!-- 12/___a__ -->
<g id="node25" class="node">
<title>12/___a__</title>
<ellipse fill="none" stroke="black" cx="719.66" cy="-627" rx="52.79" ry="18"/>
<text text-anchor="middle" x="719.66" y="-623.3" font-family="Times,serif" font-size="14.00">12/___a__</text>
</g>
<!-- Anfang: 1&#45;&#45;12/___a__ -->
<g id="edge22" class="edge">
<title>Anfang: 1&#45;&#45;12/___a__</title>
<path fill="none" stroke="black" d="M627.86,-640.72C641.93,-638.61 657.17,-636.34 671.12,-634.25"/>
</g>
<!-- machte: 1 -->
<g id="node26" class="node">
<title>machte: 1</title>
<ellipse fill="none" stroke="black" cx="752.54" cy="-97.28" rx="56.59" ry="18"/>
<text text-anchor="middle" x="752.54" y="-93.58" font-family="Times,serif" font-size="14.00">machte: 1</text>
</g>
<!-- 14/_a____ -->
<g id="node27" class="node">
<title>14/_a____</title>
<ellipse fill="none" stroke="black" cx="894.96" cy="-76" rx="52.79" ry="18"/>
<text text-anchor="middle" x="894.96" y="-72.3" font-family="Times,serif" font-size="14.00">14/_a____</text>
</g>
<!-- machte: 1&#45;&#45;14/_a____ -->
<g id="edge23" class="edge">
<title>machte: 1&#45;&#45;14/_a____</title>
<path fill="none" stroke="black" d="M803.96,-89.6C817.83,-87.52 832.78,-85.29 846.47,-83.24"/>
</g>
<!-- wütend: 1 -->
<g id="node28" class="node">
<title>wütend: 1</title>
<ellipse fill="none" stroke="black" cx="115.19" cy="-97.28" rx="57.39" ry="18"/>
<text text-anchor="middle" x="115.19" y="-93.58" font-family="Times,serif" font-size="14.00">wütend: 1</text>
</g>
<!-- 13/___e__ -->
<g id="node29" class="node">
<title>13/___e__</title>
<ellipse fill="none" stroke="black" cx="257.61" cy="-76" rx="52.79" ry="18"/>
<text text-anchor="middle" x="257.61" y="-72.3" font-family="Times,serif" font-size="14.00">13/___e__</text>
</g>
<!-- wütend: 1&#45;&#45;13/___e__ -->
<g id="edge24" class="edge">
<title>wütend: 1&#45;&#45;13/___e__</title>
<path fill="none" stroke="black" d="M167.01,-89.54C180.69,-87.49 195.41,-85.29 208.92,-83.28"/>
</g>
<!-- falsche: 1 -->
<g id="node30" class="node">
<title>falsche: 1</title>
<ellipse fill="none" stroke="black" cx="461.25" cy="-39.28" rx="55.49" ry="18"/>
<text text-anchor="middle" x="461.25" y="-35.58" font-family="Times,serif" font-size="14.00">falsche: 1</text>
</g>
<!-- 15/_____h_ -->
<g id="node31" class="node">
<title>15/_____h_</title>
<ellipse fill="none" stroke="black" cx="603.66" cy="-18" rx="57.69" ry="18"/>
<text text-anchor="middle" x="603.66" y="-14.3" font-family="Times,serif" font-size="14.00">15/_____h_</text>
</g>
<!-- falsche: 1&#45;&#45;15/_____h_ -->
<g id="edge25" class="edge">
<title>falsche: 1&#45;&#45;15/_____h_</title>
<path fill="none" stroke="black" d="M511.86,-31.72C524.65,-29.81 538.41,-27.75 551.29,-25.83"/>
</g>
<!-- Schritt: 1 -->
<g id="node32" class="node">
<title>Schritt: 1</title>
<ellipse fill="none" stroke="black" cx="576.6" cy="-851.28" rx="54.69" ry="18"/>
<text text-anchor="middle" x="576.6" y="-847.58" font-family="Times,serif" font-size="14.00">Schritt: 1</text>
</g>
<!-- 16/__h____ -->
<g id="node33" class="node">
<title>16/__h____</title>
<ellipse fill="none" stroke="black" cx="719.01" cy="-830" rx="57.69" ry="18"/>
<text text-anchor="middle" x="719.01" y="-826.3" font-family="Times,serif" font-size="14.00">16/__h____</text>
</g>
<!-- Schritt: 1&#45;&#45;16/__h____ -->
<g id="edge26" class="edge">
<title>Schritt: 1&#45;&#45;16/__h____</title>
<path fill="none" stroke="black" d="M626.41,-843.84C639.4,-841.89 653.44,-839.8 666.57,-837.84"/>
</g>
<!-- Richtung: 1 -->
<g id="node34" class="node">
<title>Richtung: 1</title>
<ellipse fill="none" stroke="black" cx="64.34" cy="-851.28" rx="64.19" ry="18"/>
<text text-anchor="middle" x="64.34" y="-847.58" font-family="Times,serif" font-size="14.00">Richtung: 1</text>
</g>
<!-- 17/________ -->
<g id="node35" class="node">
<title>17/________</title>
<ellipse fill="none" stroke="black" cx="206.76" cy="-830" rx="60.39" ry="18"/>
<text text-anchor="middle" x="206.76" y="-826.3" font-family="Times,serif" font-size="14.00">17/________</text>
</g>
<!-- Richtung: 1&#45;&#45;17/________ -->
<g id="edge27" class="edge">
<title>Richtung: 1&#45;&#45;17/________</title>
<path fill="none" stroke="black" d="M121.45,-842.75C131.67,-841.22 142.28,-839.63 152.42,-838.12"/>
</g>
<!-- angesehen: 1 -->
<g id="node36" class="node">
<title>angesehen: 1</title>
<ellipse fill="none" stroke="black" cx="565.14" cy="-532.28" rx="72.29" ry="18"/>
<text text-anchor="middle" x="565.14" y="-528.58" font-family="Times,serif" font-size="14.00">angesehen: 1</text>
</g>
<!-- 18/_____e___ -->
<g id="node37" class="node">
<title>18/_____e___</title>
<ellipse fill="none" stroke="black" cx="707.56" cy="-511" rx="65.79" ry="18"/>
<text text-anchor="middle" x="707.56" y="-507.3" font-family="Times,serif" font-size="14.00">18/_____e___</text>
</g>
<!-- angesehen: 1&#45;&#45;18/_____e___ -->
<g id="edge28" class="edge">
<title>angesehen: 1&#45;&#45;18/_____e___</title>
<path fill="none" stroke="black" d="M627.2,-523.01C634.69,-521.89 642.33,-520.75 649.76,-519.64"/>
</g>
<!-- Universum: 1 -->
<g id="node38" class="node">
<title>Universum: 1</title>
<ellipse fill="none" stroke="black" cx="595.44" cy="-329.28" rx="73.39" ry="18"/>
<text text-anchor="middle" x="595.44" y="-325.58" font-family="Times,serif" font-size="14.00">Universum: 1</text>
</g>
<!-- 19/____e____ -->
<g id="node39" class="node">
<title>19/____e____</title>
<ellipse fill="none" stroke="black" cx="737.86" cy="-308" rx="65.79" ry="18"/>
<text text-anchor="middle" x="737.86" y="-304.3" font-family="Times,serif" font-size="14.00">19/____e____</text>
</g>
<!-- Universum: 1&#45;&#45;19/____e____ -->
<g id="edge29" class="edge">
<title>Universum: 1&#45;&#45;19/____e____</title>
<path fill="none" stroke="black" d="M658.33,-319.88C665.48,-318.81 672.75,-317.73 679.83,-316.67"/>
</g>
<!-- erschaffen: 1 -->
<g id="node40" class="node">
<title>erschaffen: 1</title>
<ellipse fill="none" stroke="black" cx="680.49" cy="-213.28" rx="71.49" ry="18"/>
<text text-anchor="middle" x="680.49" y="-209.58" font-family="Times,serif" font-size="14.00">erschaffen: 1</text>
</g>
<!-- 20/__________ -->
<g id="node41" class="node">
<title>20/__________</title>
<ellipse fill="none" stroke="black" cx="822.91" cy="-192" rx="69.59" ry="18"/>
<text text-anchor="middle" x="822.91" y="-188.3" font-family="Times,serif" font-size="14.00">20/__________</text>
</g>
<!-- erschaffen: 1&#45;&#45;20/__________ -->
<g id="edge30" class="edge">
<title>erschaffen: 1&#45;&#45;20/__________</title>
<path fill="none" stroke="black" d="M742.13,-204.07C748.9,-203.06 755.78,-202.03 762.53,-201.02"/>
</g>
<!-- allenthalben: 1 -->
<g id="node42" class="node">
<title>allenthalben: 1</title>
<ellipse fill="none" stroke="black" cx="311.94" cy="-155.28" rx="79.89" ry="18"/>
<text text-anchor="middle" x="311.94" y="-151.58" font-family="Times,serif" font-size="14.00">allenthalben: 1</text>
</g>
<!-- 21/____________ -->
<g id="node43" class="node">
<title>21/____________</title>
<ellipse fill="none" stroke="black" cx="454.36" cy="-134" rx="77.99" ry="18"/>
<text text-anchor="middle" x="454.36" y="-130.3" font-family="Times,serif" font-size="14.00">21/____________</text>
</g>
<!-- allenthalben: 1&#45;&#45;21/____________ -->
<g id="edge31" class="edge">
<title>allenthalben: 1&#45;&#45;21/____________</title>
<path fill="none" stroke="black" d="M378.57,-145.32C381.9,-144.83 385.24,-144.33 388.57,-143.83"/>
</g>
</g>
</svg>
