<?xml version="1.0" encoding="UTF-8" standalone="no"?>
<!DOCTYPE svg PUBLIC "-//W3C//DTD SVG 1.1//EN"
 "http://www.w3.org/Graphics/SVG/1.1/DTD/svg11.dtd">
<!-- Generated by graphviz version 2.43.0 (0)
 -->
<!-- Title: %3 Pages: 1 -->
<svg width="1659pt" height="1835pt"
 viewBox="0.00 0.00 1658.95 1835.37" xmlns="http://www.w3.org/2000/svg" xmlns:xlink="http://www.w3.org/1999/xlink">
<g id="graph0" class="graph" transform="scale(1 1) rotate(0) translate(4 1831.37)">
<title>%3</title>
<polygon fill="white" stroke="transparent" points="-4,4 -4,-1831.37 1654.95,-1831.37 1654.95,4 -4,4"/>
<!-- Es: 1 -->
<g id="node1" class="node">
<title>Es: 1</title>
<ellipse fill="none" stroke="black" cx="34.45" cy="-714.28" rx="34.39" ry="18"/>
<text text-anchor="middle" x="34.45" y="-710.58" font-family="Times,serif" font-size="14.00">Es: 1</text>
</g>
<!-- 2/_s -->
<g id="node2" class="node">
<title>2/_s</title>
<ellipse fill="none" stroke="black" cx="176.87" cy="-693" rx="28.7" ry="18"/>
<text text-anchor="middle" x="176.87" y="-689.3" font-family="Times,serif" font-size="14.00">2/_s</text>
</g>
<!-- Es: 1&#45;&#45;2/_s -->
<g id="edge1" class="edge">
<title>Es: 1&#45;&#45;2/_s</title>
<path fill="none" stroke="black" d="M67.84,-709.29C92.5,-705.6 125.7,-700.65 148.95,-697.17"/>
</g>
<!-- in: 2 -->
<g id="node3" class="node">
<title>in: 2</title>
<ellipse fill="none" stroke="black" cx="203.78" cy="-516.77" rx="31.4" ry="18"/>
<text text-anchor="middle" x="203.78" y="-513.07" font-family="Times,serif" font-size="14.00">in: 2</text>
</g>
<!-- 0/_n -->
<g id="node4" class="node">
<title>0/_n</title>
<ellipse fill="none" stroke="black" cx="296.47" cy="-628.11" rx="29.8" ry="18"/>
<text text-anchor="middle" x="296.47" y="-624.41" font-family="Times,serif" font-size="14.00">0/_n</text>
</g>
<!-- in: 2&#45;&#45;0/_n -->
<g id="edge2" class="edge">
<title>in: 2&#45;&#45;0/_n</title>
<path fill="none" stroke="black" d="M217.46,-533.2C235.08,-554.37 265.53,-590.95 283.04,-611.97"/>
</g>
<!-- 3/i_ -->
<g id="node5" class="node">
<title>3/i_</title>
<ellipse fill="none" stroke="black" cx="162" cy="-378" rx="27" ry="18"/>
<text text-anchor="middle" x="162" y="-374.3" font-family="Times,serif" font-size="14.00">3/i_</text>
</g>
<!-- in: 2&#45;&#45;3/i_ -->
<g id="edge3" class="edge">
<title>in: 2&#45;&#45;3/i_</title>
<path fill="none" stroke="black" d="M198.41,-498.92C190.38,-472.27 175.37,-422.4 167.36,-395.79"/>
</g>
<!-- so: 1 -->
<g id="node6" class="node">
<title>so: 1</title>
<ellipse fill="none" stroke="black" cx="302.5" cy="-39.28" rx="32.49" ry="18"/>
<text text-anchor="middle" x="302.5" y="-35.58" font-family="Times,serif" font-size="14.00">so: 1</text>
</g>
<!-- 1/_o -->
<g id="node7" class="node">
<title>1/_o</title>
<ellipse fill="none" stroke="black" cx="444.92" cy="-18" rx="29.5" ry="18"/>
<text text-anchor="middle" x="444.92" y="-14.3" font-family="Times,serif" font-size="14.00">1/_o</text>
</g>
<!-- so: 1&#45;&#45;1/_o -->
<g id="edge4" class="edge">
<title>so: 1&#45;&#45;1/_o</title>
<path fill="none" stroke="black" d="M334.1,-34.56C358.69,-30.88 392.51,-25.83 416.3,-22.28"/>
</g>
<!-- aus: 1 -->
<g id="node8" class="node">
<title>aus: 1</title>
<ellipse fill="none" stroke="black" cx="758.35" cy="-129.28" rx="38.19" ry="18"/>
<text text-anchor="middle" x="758.35" y="-125.58" font-family="Times,serif" font-size="14.00">aus: 1</text>
</g>
<!-- 7/__s -->
<g id="node9" class="node">
<title>7/__s</title>
<ellipse fill="none" stroke="black" cx="900.77" cy="-108" rx="33.29" ry="18"/>
<text text-anchor="middle" x="900.77" y="-104.3" font-family="Times,serif" font-size="14.00">7/__s</text>
</g>
<!-- aus: 1&#45;&#45;7/__s -->
<g id="edge5" class="edge">
<title>aus: 1&#45;&#45;7/__s</title>
<path fill="none" stroke="black" d="M795.02,-123.8C817.77,-120.4 846.72,-116.07 868.58,-112.81"/>
</g>
<!-- der: 1 -->
<g id="node10" class="node">
<title>der: 1</title>
<ellipse fill="none" stroke="black" cx="821.89" cy="-1328.79" rx="38.19" ry="18"/>
<text text-anchor="middle" x="821.89" y="-1325.09" font-family="Times,serif" font-size="14.00">der: 1</text>
</g>
<!-- 12/d__ -->
<g id="node11" class="node">
<title>12/d__</title>
<ellipse fill="none" stroke="black" cx="873.93" cy="-1190.57" rx="40.09" ry="18"/>
<text text-anchor="middle" x="873.93" y="-1186.87" font-family="Times,serif" font-size="14.00">12/d__</text>
</g>
<!-- der: 1&#45;&#45;12/d__ -->
<g id="edge6" class="edge">
<title>der: 1&#45;&#45;12/d__</title>
<path fill="none" stroke="black" d="M828.59,-1311C838.52,-1284.61 857.08,-1235.34 867.09,-1208.73"/>
</g>
<!-- die: 2 -->
<g id="node12" class="node">
<title>die: 2</title>
<ellipse fill="none" stroke="black" cx="918.22" cy="-1045.2" rx="36.29" ry="18"/>
<text text-anchor="middle" x="918.22" y="-1041.5" font-family="Times,serif" font-size="14.00">die: 2</text>
</g>
<!-- die: 2&#45;&#45;12/d__ -->
<g id="edge9" class="edge">
<title>die: 2&#45;&#45;12/d__</title>
<path fill="none" stroke="black" d="M912.79,-1063.03C904.29,-1090.93 887.93,-1144.61 879.41,-1172.6"/>
</g>
<!-- 8/_i_ -->
<g id="node13" class="node">
<title>8/_i_</title>
<ellipse fill="none" stroke="black" cx="935.13" cy="-906.28" rx="31.4" ry="18"/>
<text text-anchor="middle" x="935.13" y="-902.58" font-family="Times,serif" font-size="14.00">8/_i_</text>
</g>
<!-- die: 2&#45;&#45;8/_i_ -->
<g id="edge7" class="edge">
<title>die: 2&#45;&#45;8/_i_</title>
<path fill="none" stroke="black" d="M920.43,-1027.04C923.67,-1000.41 929.68,-951.07 932.92,-924.45"/>
</g>
<!-- 9/_i_ -->
<g id="node14" class="node">
<title>9/_i_</title>
<ellipse fill="none" stroke="black" cx="993.1" cy="-887.79" rx="31.4" ry="18"/>
<text text-anchor="middle" x="993.1" y="-884.09" font-family="Times,serif" font-size="14.00">9/_i_</text>
</g>
<!-- die: 2&#45;&#45;9/_i_ -->
<g id="edge8" class="edge">
<title>die: 2&#45;&#45;9/_i_</title>
<path fill="none" stroke="black" d="M926.66,-1027.45C941.12,-997.06 970.44,-935.42 984.8,-905.24"/>
</g>
<!-- ein: 1 -->
<g id="node15" class="node">
<title>ein: 1</title>
<ellipse fill="none" stroke="black" cx="891.94" cy="-756.48" rx="36.29" ry="18"/>
<text text-anchor="middle" x="891.94" y="-752.78" font-family="Times,serif" font-size="14.00">ein: 1</text>
</g>
<!-- ein: 1&#45;&#45;8/_i_ -->
<g id="edge11" class="edge">
<title>ein: 1&#45;&#45;8/_i_</title>
<path fill="none" stroke="black" d="M897.15,-774.55C905.45,-803.34 921.59,-859.32 929.9,-888.15"/>
</g>
<!-- ein: 1&#45;&#45;9/_i_ -->
<g id="edge12" class="edge">
<title>ein: 1&#45;&#45;9/_i_</title>
<path fill="none" stroke="black" d="M904.96,-773.38C924.38,-798.6 960.74,-845.79 980.13,-870.96"/>
</g>
<!-- 6/__n -->
<g id="node16" class="node">
<title>6/__n</title>
<ellipse fill="none" stroke="black" cx="743.2" cy="-694.94" rx="34.39" ry="18"/>
<text text-anchor="middle" x="743.2" y="-691.24" font-family="Times,serif" font-size="14.00">6/__n</text>
</g>
<!-- ein: 1&#45;&#45;6/__n -->
<g id="edge10" class="edge">
<title>ein: 1&#45;&#45;6/__n</title>
<path fill="none" stroke="black" d="M863.97,-744.91C837.12,-733.8 796.85,-717.14 770.3,-706.15"/>
</g>
<!-- 13/e__ -->
<g id="node17" class="node">
<title>13/e__</title>
<ellipse fill="none" stroke="black" cx="965.07" cy="-609.71" rx="39.79" ry="18"/>
<text text-anchor="middle" x="965.07" y="-606.01" font-family="Times,serif" font-size="14.00">13/e__</text>
</g>
<!-- ein: 1&#45;&#45;13/e__ -->
<g id="edge13" class="edge">
<title>ein: 1&#45;&#45;13/e__</title>
<path fill="none" stroke="black" d="M900.76,-738.78C914.82,-710.57 942.14,-655.73 956.21,-627.48"/>
</g>
<!-- ist: 1 -->
<g id="node18" class="node">
<title>ist: 1</title>
<ellipse fill="none" stroke="black" cx="1024.45" cy="-759.28" rx="34.39" ry="18"/>
<text text-anchor="middle" x="1024.45" y="-755.58" font-family="Times,serif" font-size="14.00">ist: 1</text>
</g>
<!-- 11/_s_ -->
<g id="node19" class="node">
<title>11/_s_</title>
<ellipse fill="none" stroke="black" cx="1166.87" cy="-738" rx="38.99" ry="18"/>
<text text-anchor="middle" x="1166.87" y="-734.3" font-family="Times,serif" font-size="14.00">11/_s_</text>
</g>
<!-- ist: 1&#45;&#45;11/_s_ -->
<g id="edge14" class="edge">
<title>ist: 1&#45;&#45;11/_s_</title>
<path fill="none" stroke="black" d="M1057.84,-754.29C1079.38,-751.07 1107.42,-746.88 1129.68,-743.56"/>
</g>
<!-- Opa: 1 -->
<g id="node20" class="node">
<title>Opa: 1</title>
<ellipse fill="none" stroke="black" cx="670.95" cy="-1029.28" rx="40.89" ry="18"/>
<text text-anchor="middle" x="670.95" y="-1025.58" font-family="Times,serif" font-size="14.00">Opa: 1</text>
</g>
<!-- 4/__a -->
<g id="node21" class="node">
<title>4/__a</title>
<ellipse fill="none" stroke="black" cx="813.37" cy="-1008" rx="33.6" ry="18"/>
<text text-anchor="middle" x="813.37" y="-1004.3" font-family="Times,serif" font-size="14.00">4/__a</text>
</g>
<!-- Opa: 1&#45;&#45;4/__a -->
<g id="edge15" class="edge">
<title>Opa: 1&#45;&#45;4/__a</title>
<path fill="none" stroke="black" d="M709.86,-1023.46C732.1,-1020.14 759.67,-1016.02 780.76,-1012.87"/>
</g>
<!-- sie: 1 -->
<g id="node22" class="node">
<title>sie: 1</title>
<ellipse fill="none" stroke="black" cx="1122.83" cy="-904.11" rx="36" ry="18"/>
<text text-anchor="middle" x="1122.83" y="-900.41" font-family="Times,serif" font-size="14.00">sie: 1</text>
</g>
<!-- sie: 1&#45;&#45;8/_i_ -->
<g id="edge16" class="edge">
<title>sie: 1&#45;&#45;8/_i_</title>
<path fill="none" stroke="black" d="M1087.09,-904.52C1052.2,-904.93 999.65,-905.53 966.38,-905.92"/>
</g>
<!-- sie: 1&#45;&#45;9/_i_ -->
<g id="edge17" class="edge">
<title>sie: 1&#45;&#45;9/_i_</title>
<path fill="none" stroke="black" d="M1088.07,-899.74C1068.1,-897.23 1043.25,-894.1 1023.97,-891.68"/>
</g>
<!-- 14/s__ -->
<g id="node23" class="node">
<title>14/s__</title>
<ellipse fill="none" stroke="black" cx="1275.9" cy="-900.14" rx="38.99" ry="18"/>
<text text-anchor="middle" x="1275.9" y="-896.44" font-family="Times,serif" font-size="14.00">14/s__</text>
</g>
<!-- sie: 1&#45;&#45;14/s__ -->
<g id="edge18" class="edge">
<title>sie: 1&#45;&#45;14/s__</title>
<path fill="none" stroke="black" d="M1158.72,-903.18C1182.14,-902.57 1212.71,-901.78 1236.75,-901.16"/>
</g>
<!-- und: 2 -->
<g id="node24" class="node">
<title>und: 2</title>
<ellipse fill="none" stroke="black" cx="622.08" cy="-831.77" rx="40.09" ry="18"/>
<text text-anchor="middle" x="622.08" y="-828.07" font-family="Times,serif" font-size="14.00">und: 2</text>
</g>
<!-- 5/__d -->
<g id="node25" class="node">
<title>5/__d</title>
<ellipse fill="none" stroke="black" cx="714.77" cy="-943.11" rx="34.39" ry="18"/>
<text text-anchor="middle" x="714.77" y="-939.41" font-family="Times,serif" font-size="14.00">5/__d</text>
</g>
<!-- und: 2&#45;&#45;5/__d -->
<g id="edge19" class="edge">
<title>und: 2&#45;&#45;5/__d</title>
<path fill="none" stroke="black" d="M636.16,-848.68C653.68,-869.73 683.42,-905.45 700.86,-926.4"/>
</g>
<!-- 10/_n_ -->
<g id="node26" class="node">
<title>10/_n_</title>
<ellipse fill="none" stroke="black" cx="580.3" cy="-693" rx="40.09" ry="18"/>
<text text-anchor="middle" x="580.3" y="-689.3" font-family="Times,serif" font-size="14.00">10/_n_</text>
</g>
<!-- und: 2&#45;&#45;10/_n_ -->
<g id="edge20" class="edge">
<title>und: 2&#45;&#45;10/_n_</title>
<path fill="none" stroke="black" d="M616.7,-813.92C608.72,-787.42 593.83,-737.94 585.79,-711.23"/>
</g>
<!-- von: 1 -->
<g id="node27" class="node">
<title>von: 1</title>
<ellipse fill="none" stroke="black" cx="624" cy="-603" rx="38.99" ry="18"/>
<text text-anchor="middle" x="624" y="-599.3" font-family="Times,serif" font-size="14.00">von: 1</text>
</g>
<!-- von: 1&#45;&#45;6/__n -->
<g id="edge21" class="edge">
<title>von: 1&#45;&#45;6/__n</title>
<path fill="none" stroke="black" d="M644.22,-618.6C666.4,-635.71 701.77,-662.98 723.67,-679.88"/>
</g>
<!-- dass: 1 -->
<g id="node28" class="node">
<title>dass: 1</title>
<ellipse fill="none" stroke="black" cx="1033.55" cy="-84.28" rx="43.59" ry="18"/>
<text text-anchor="middle" x="1033.55" y="-80.58" font-family="Times,serif" font-size="14.00">dass: 1</text>
</g>
<!-- 17/__s_ -->
<g id="node29" class="node">
<title>17/__s_</title>
<ellipse fill="none" stroke="black" cx="1175.97" cy="-63" rx="43.59" ry="18"/>
<text text-anchor="middle" x="1175.97" y="-59.3" font-family="Times,serif" font-size="14.00">17/__s_</text>
</g>
<!-- dass: 1&#45;&#45;17/__s_ -->
<g id="edge22" class="edge">
<title>dass: 1&#45;&#45;17/__s_</title>
<path fill="none" stroke="black" d="M1074.74,-78.12C1093.63,-75.3 1115.98,-71.96 1134.86,-69.14"/>
</g>
<!-- eine: 2 -->
<g id="node30" class="node">
<title>eine: 2</title>
<ellipse fill="none" stroke="black" cx="140.1" cy="-108" rx="42.49" ry="18"/>
<text text-anchor="middle" x="140.1" y="-104.3" font-family="Times,serif" font-size="14.00">eine: 2</text>
</g>
<!-- 16/__n_ -->
<g id="node31" class="node">
<title>16/__n_</title>
<ellipse fill="none" stroke="black" cx="296.16" cy="-129.22" rx="44.39" ry="18"/>
<text text-anchor="middle" x="296.16" y="-125.52" font-family="Times,serif" font-size="14.00">16/__n_</text>
</g>
<!-- eine: 2&#45;&#45;16/__n_ -->
<g id="edge23" class="edge">
<title>eine: 2&#45;&#45;16/__n_</title>
<path fill="none" stroke="black" d="M180.7,-113.52C203.27,-116.59 231.33,-120.4 254.13,-123.5"/>
</g>
<!-- 18/_i__ -->
<g id="node32" class="node">
<title>18/_i__</title>
<ellipse fill="none" stroke="black" cx="131.6" cy="-265.2" rx="41.69" ry="18"/>
<text text-anchor="middle" x="131.6" y="-261.5" font-family="Times,serif" font-size="14.00">18/_i__</text>
</g>
<!-- eine: 2&#45;&#45;18/_i__ -->
<g id="edge24" class="edge">
<title>eine: 2&#45;&#45;18/_i__</title>
<path fill="none" stroke="black" d="M139.13,-126.03C137.5,-156.19 134.23,-216.55 132.59,-246.89"/>
</g>
<!-- sind: 1 -->
<g id="node33" class="node">
<title>sind: 1</title>
<ellipse fill="none" stroke="black" cx="287.97" cy="-286.77" rx="42.49" ry="18"/>
<text text-anchor="middle" x="287.97" y="-283.07" font-family="Times,serif" font-size="14.00">sind: 1</text>
</g>
<!-- sind: 1&#45;&#45;16/__n_ -->
<g id="edge26" class="edge">
<title>sind: 1&#45;&#45;16/__n_</title>
<path fill="none" stroke="black" d="M288.91,-268.7C290.48,-238.47 293.62,-177.98 295.2,-147.57"/>
</g>
<!-- sind: 1&#45;&#45;18/_i__ -->
<g id="edge27" class="edge">
<title>sind: 1&#45;&#45;18/_i__</title>
<path fill="none" stroke="black" d="M247.7,-281.22C224.26,-277.98 194.83,-273.92 171.46,-270.7"/>
</g>
<!-- 15/___d -->
<g id="node34" class="node">
<title>15/___d</title>
<ellipse fill="none" stroke="black" cx="382.4" cy="-403.47" rx="44.39" ry="18"/>
<text text-anchor="middle" x="382.4" y="-399.77" font-family="Times,serif" font-size="14.00">15/___d</text>
</g>
<!-- sind: 1&#45;&#45;15/___d -->
<g id="edge25" class="edge">
<title>sind: 1&#45;&#45;15/___d</title>
<path fill="none" stroke="black" d="M301.9,-303.99C319.76,-326.05 350.53,-364.08 368.41,-386.18"/>
</g>
<!-- einer: 1 -->
<g id="node35" class="node">
<title>einer: 1</title>
<ellipse fill="none" stroke="black" cx="406.15" cy="-873" rx="46.29" ry="18"/>
<text text-anchor="middle" x="406.15" y="-869.3" font-family="Times,serif" font-size="14.00">einer: 1</text>
</g>
<!-- 21/_i___ -->
<g id="node36" class="node">
<title>21/_i___</title>
<ellipse fill="none" stroke="black" cx="497.25" cy="-985.48" rx="46.29" ry="18"/>
<text text-anchor="middle" x="497.25" y="-981.78" font-family="Times,serif" font-size="14.00">21/_i___</text>
</g>
<!-- einer: 1&#45;&#45;21/_i___ -->
<g id="edge28" class="edge">
<title>einer: 1&#45;&#45;21/_i___</title>
<path fill="none" stroke="black" d="M420.38,-890.57C437.5,-911.71 466.04,-946.95 483.11,-968.03"/>
</g>
<!-- Liste: 1 -->
<g id="node37" class="node">
<title>Liste: 1</title>
<ellipse fill="none" stroke="black" cx="573.75" cy="-1108.53" rx="45.49" ry="18"/>
<text text-anchor="middle" x="573.75" y="-1104.83" font-family="Times,serif" font-size="14.00">Liste: 1</text>
</g>
<!-- Liste: 1&#45;&#45;21/_i___ -->
<g id="edge30" class="edge">
<title>Liste: 1&#45;&#45;21/_i___</title>
<path fill="none" stroke="black" d="M562.79,-1090.9C548.24,-1067.51 522.72,-1026.45 508.19,-1003.07"/>
</g>
<!-- 19/____e -->
<g id="node38" class="node">
<title>19/____e</title>
<ellipse fill="none" stroke="black" cx="633.92" cy="-1240.42" rx="48.19" ry="18"/>
<text text-anchor="middle" x="633.92" y="-1236.72" font-family="Times,serif" font-size="14.00">19/____e</text>
</g>
<!-- Liste: 1&#45;&#45;19/____e -->
<g id="edge29" class="edge">
<title>Liste: 1&#45;&#45;19/____e</title>
<path fill="none" stroke="black" d="M581.86,-1126.32C593.35,-1151.49 614.22,-1197.25 625.74,-1222.49"/>
</g>
<!-- schon: 1 -->
<g id="node39" class="node">
<title>schon: 1</title>
<ellipse fill="none" stroke="black" cx="719.46" cy="-1664.71" rx="49.29" ry="18"/>
<text text-anchor="middle" x="719.46" y="-1661.01" font-family="Times,serif" font-size="14.00">schon: 1</text>
</g>
<!-- 20/____n -->
<g id="node40" class="node">
<title>20/____n</title>
<ellipse fill="none" stroke="black" cx="714.84" cy="-1809.37" rx="48.99" ry="18"/>
<text text-anchor="middle" x="714.84" y="-1805.67" font-family="Times,serif" font-size="14.00">20/____n</text>
</g>
<!-- schon: 1&#45;&#45;20/____n -->
<g id="edge31" class="edge">
<title>schon: 1&#45;&#45;20/____n</title>
<path fill="none" stroke="black" d="M718.88,-1682.74C718,-1710.46 716.31,-1763.25 715.43,-1791.11"/>
</g>
<!-- 22/s____ -->
<g id="node41" class="node">
<title>22/s____</title>
<ellipse fill="none" stroke="black" cx="706.54" cy="-1520.53" rx="48.19" ry="18"/>
<text text-anchor="middle" x="706.54" y="-1516.83" font-family="Times,serif" font-size="14.00">22/s____</text>
</g>
<!-- schon: 1&#45;&#45;22/s____ -->
<g id="edge32" class="edge">
<title>schon: 1&#45;&#45;22/s____</title>
<path fill="none" stroke="black" d="M717.82,-1646.45C715.34,-1618.72 710.64,-1566.29 708.16,-1538.64"/>
</g>
<!-- sowie: 1 -->
<g id="node42" class="node">
<title>sowie: 1</title>
<ellipse fill="none" stroke="black" cx="678.72" cy="-1378.23" rx="48.99" ry="18"/>
<text text-anchor="middle" x="678.72" y="-1374.53" font-family="Times,serif" font-size="14.00">sowie: 1</text>
</g>
<!-- sowie: 1&#45;&#45;19/____e -->
<g id="edge33" class="edge">
<title>sowie: 1&#45;&#45;19/____e</title>
<path fill="none" stroke="black" d="M672.86,-1360.21C664.28,-1333.8 648.36,-1284.86 639.78,-1258.44"/>
</g>
<!-- sowie: 1&#45;&#45;22/s____ -->
<g id="edge34" class="edge">
<title>sowie: 1&#45;&#45;22/s____</title>
<path fill="none" stroke="black" d="M682.24,-1396.25C687.57,-1423.48 697.6,-1474.81 702.96,-1502.21"/>
</g>
<!-- einige: 1 -->
<g id="node43" class="node">
<title>einige: 1</title>
<ellipse fill="none" stroke="black" cx="216.01" cy="-834.24" rx="50.89" ry="18"/>
<text text-anchor="middle" x="216.01" y="-830.54" font-family="Times,serif" font-size="14.00">einige: 1</text>
</g>
<!-- 26/_i____ -->
<g id="node44" class="node">
<title>26/_i____</title>
<ellipse fill="none" stroke="black" cx="323.44" cy="-736.65" rx="50.09" ry="18"/>
<text text-anchor="middle" x="323.44" y="-732.95" font-family="Times,serif" font-size="14.00">26/_i____</text>
</g>
<!-- einige: 1&#45;&#45;26/_i____ -->
<g id="edge35" class="edge">
<title>einige: 1&#45;&#45;26/_i____</title>
<path fill="none" stroke="black" d="M234.72,-817.24C254.44,-799.33 285.3,-771.29 304.94,-753.45"/>
</g>
<!-- 27/e_____ -->
<g id="node45" class="node">
<title>27/e_____</title>
<ellipse fill="none" stroke="black" cx="97.65" cy="-917.7" rx="52.79" ry="18"/>
<text text-anchor="middle" x="97.65" y="-914" font-family="Times,serif" font-size="14.00">27/e_____</text>
</g>
<!-- einige: 1&#45;&#45;27/e_____ -->
<g id="edge36" class="edge">
<title>einige: 1&#45;&#45;27/e_____</title>
<path fill="none" stroke="black" d="M193.19,-850.33C172.36,-865.01 141.73,-886.61 120.8,-901.37"/>
</g>
<!-- findet: 1 -->
<g id="node46" class="node">
<title>findet: 1</title>
<ellipse fill="none" stroke="black" cx="418.02" cy="-626.34" rx="50.09" ry="18"/>
<text text-anchor="middle" x="418.02" y="-622.64" font-family="Times,serif" font-size="14.00">findet: 1</text>
</g>
<!-- findet: 1&#45;&#45;26/_i____ -->
<g id="edge38" class="edge">
<title>findet: 1&#45;&#45;26/_i____</title>
<path fill="none" stroke="black" d="M403.24,-643.58C385.58,-664.18 356.18,-698.46 338.42,-719.17"/>
</g>
<!-- 24/___d__ -->
<g id="node47" class="node">
<title>24/___d__</title>
<ellipse fill="none" stroke="black" cx="502.49" cy="-507.08" rx="53.09" ry="18"/>
<text text-anchor="middle" x="502.49" y="-503.38" font-family="Times,serif" font-size="14.00">24/___d__</text>
</g>
<!-- findet: 1&#45;&#45;24/___d__ -->
<g id="edge37" class="edge">
<title>findet: 1&#45;&#45;24/___d__</title>
<path fill="none" stroke="black" d="M430.48,-608.74C446.45,-586.19 473.98,-547.33 489.97,-524.75"/>
</g>
<!-- Jürgen: 1 -->
<g id="node48" class="node">
<title>Jürgen: 1</title>
<ellipse fill="none" stroke="black" cx="594.53" cy="-108" rx="53.09" ry="18"/>
<text text-anchor="middle" x="594.53" y="-104.3" font-family="Times,serif" font-size="14.00">Jürgen: 1</text>
</g>
<!-- 23/_____n -->
<g id="node49" class="node">
<title>23/_____n</title>
<ellipse fill="none" stroke="black" cx="666.62" cy="-251.45" rx="53.09" ry="18"/>
<text text-anchor="middle" x="666.62" y="-247.75" font-family="Times,serif" font-size="14.00">23/_____n</text>
</g>
<!-- Jürgen: 1&#45;&#45;23/_____n -->
<g id="edge39" class="edge">
<title>Jürgen: 1&#45;&#45;23/_____n</title>
<path fill="none" stroke="black" d="M603.52,-125.88C617.33,-153.37 643.64,-205.72 657.52,-233.34"/>
</g>
<!-- Rätsel: 1 -->
<g id="node50" class="node">
<title>Rätsel: 1</title>
<ellipse fill="none" stroke="black" cx="1132" cy="-174.28" rx="51.99" ry="18"/>
<text text-anchor="middle" x="1132" y="-170.58" font-family="Times,serif" font-size="14.00">Rätsel: 1</text>
</g>
<!-- 25/__t___ -->
<g id="node51" class="node">
<title>25/__t___</title>
<ellipse fill="none" stroke="black" cx="1274.41" cy="-153" rx="51.19" ry="18"/>
<text text-anchor="middle" x="1274.41" y="-149.3" font-family="Times,serif" font-size="14.00">25/__t___</text>
</g>
<!-- Rätsel: 1&#45;&#45;25/__t___ -->
<g id="edge40" class="edge">
<title>Rätsel: 1&#45;&#45;25/__t___</title>
<path fill="none" stroke="black" d="M1179.82,-167.13C1195.01,-164.86 1211.8,-162.36 1226.96,-160.09"/>
</g>
<!-- sollen: 1 -->
<g id="node52" class="node">
<title>sollen: 1</title>
<ellipse fill="none" stroke="black" cx="823.83" cy="-237.21" rx="50.09" ry="18"/>
<text text-anchor="middle" x="823.83" y="-233.51" font-family="Times,serif" font-size="14.00">sollen: 1</text>
</g>
<!-- sollen: 1&#45;&#45;23/_____n -->
<g id="edge41" class="edge">
<title>sollen: 1&#45;&#45;23/_____n</title>
<path fill="none" stroke="black" d="M774.95,-241.64C756.92,-243.27 736.45,-245.12 718.19,-246.78"/>
</g>
<!-- 28/s_____ -->
<g id="node53" class="node">
<title>28/s_____</title>
<ellipse fill="none" stroke="black" cx="968.68" cy="-204.19" rx="51.99" ry="18"/>
<text text-anchor="middle" x="968.68" y="-200.49" font-family="Times,serif" font-size="14.00">28/s_____</text>
</g>
<!-- sollen: 1&#45;&#45;28/s_____ -->
<g id="edge42" class="edge">
<title>sollen: 1&#45;&#45;28/s_____</title>
<path fill="none" stroke="black" d="M866.12,-227.57C884.65,-223.34 906.4,-218.39 925.08,-214.13"/>
</g>
<!-- werden: 1 -->
<g id="node54" class="node">
<title>werden: 1</title>
<ellipse fill="none" stroke="black" cx="584.3" cy="-383.77" rx="57.39" ry="18"/>
<text text-anchor="middle" x="584.3" y="-380.07" font-family="Times,serif" font-size="14.00">werden: 1</text>
</g>
<!-- werden: 1&#45;&#45;24/___d__ -->
<g id="edge44" class="edge">
<title>werden: 1&#45;&#45;24/___d__</title>
<path fill="none" stroke="black" d="M572.58,-401.44C557.03,-424.88 529.73,-466.02 514.19,-489.44"/>
</g>
<!-- werden: 1&#45;&#45;23/_____n -->
<g id="edge43" class="edge">
<title>werden: 1&#45;&#45;23/_____n</title>
<path fill="none" stroke="black" d="M595.4,-365.93C611.11,-340.67 639.67,-294.76 655.43,-269.43"/>
</g>
<!-- ergeben: 1 -->
<g id="node55" class="node">
<title>ergeben: 1</title>
<ellipse fill="none" stroke="black" cx="312.04" cy="-1582.16" rx="60.39" ry="18"/>
<text text-anchor="middle" x="312.04" y="-1578.46" font-family="Times,serif" font-size="14.00">ergeben: 1</text>
</g>
<!-- 29/______n -->
<g id="node56" class="node">
<title>29/______n</title>
<ellipse fill="none" stroke="black" cx="365.14" cy="-1430.54" rx="57.69" ry="18"/>
<text text-anchor="middle" x="365.14" y="-1426.84" font-family="Times,serif" font-size="14.00">29/______n</text>
</g>
<!-- ergeben: 1&#45;&#45;29/______n -->
<g id="edge45" class="edge">
<title>ergeben: 1&#45;&#45;29/______n</title>
<path fill="none" stroke="black" d="M318.34,-1564.18C328.56,-1534.99 348.63,-1477.67 358.85,-1448.51"/>
</g>
<!-- 30/___e___ -->
<g id="node57" class="node">
<title>30/___e___</title>
<ellipse fill="none" stroke="black" cx="463.36" cy="-1641.94" rx="57.39" ry="18"/>
<text text-anchor="middle" x="463.36" y="-1638.24" font-family="Times,serif" font-size="14.00">30/___e___</text>
</g>
<!-- ergeben: 1&#45;&#45;30/___e___ -->
<g id="edge46" class="edge">
<title>ergeben: 1&#45;&#45;30/___e___</title>
<path fill="none" stroke="black" d="M348.67,-1596.63C372.63,-1606.1 403.8,-1618.41 427.59,-1627.81"/>
</g>
<!-- 32/_r_____ -->
<g id="node58" class="node">
<title>32/_r_____</title>
<ellipse fill="none" stroke="black" cx="190.9" cy="-1677.5" rx="55.79" ry="18"/>
<text text-anchor="middle" x="190.9" y="-1673.8" font-family="Times,serif" font-size="14.00">32/_r_____</text>
</g>
<!-- ergeben: 1&#45;&#45;32/_r_____ -->
<g id="edge47" class="edge">
<title>ergeben: 1&#45;&#45;32/_r_____</title>
<path fill="none" stroke="black" d="M290.38,-1599.21C268.33,-1616.56 234.35,-1643.3 212.37,-1660.6"/>
</g>
<!-- gegeben: 1 -->
<g id="node59" class="node">
<title>gegeben: 1</title>
<ellipse fill="none" stroke="black" cx="515.72" cy="-1491.68" rx="61.99" ry="18"/>
<text text-anchor="middle" x="515.72" y="-1487.98" font-family="Times,serif" font-size="14.00">gegeben: 1</text>
</g>
<!-- gegeben: 1&#45;&#45;29/______n -->
<g id="edge48" class="edge">
<title>gegeben: 1&#45;&#45;29/______n</title>
<path fill="none" stroke="black" d="M479.65,-1477.03C455.64,-1467.28 424.24,-1454.53 400.39,-1444.85"/>
</g>
<!-- gegeben: 1&#45;&#45;30/___e___ -->
<g id="edge49" class="edge">
<title>gegeben: 1&#45;&#45;30/___e___</title>
<path fill="none" stroke="black" d="M509.41,-1509.8C499.34,-1538.68 479.78,-1594.83 469.7,-1623.75"/>
</g>
<!-- lustige: 1 -->
<g id="node60" class="node">
<title>lustige: 1</title>
<ellipse fill="none" stroke="black" cx="225.87" cy="-1008" rx="53.89" ry="18"/>
<text text-anchor="middle" x="225.87" y="-1004.3" font-family="Times,serif" font-size="14.00">lustige: 1</text>
</g>
<!-- 31/___t___ -->
<g id="node61" class="node">
<title>31/___t___</title>
<ellipse fill="none" stroke="black" cx="284.42" cy="-1141.29" rx="55.79" ry="18"/>
<text text-anchor="middle" x="284.42" y="-1137.59" font-family="Times,serif" font-size="14.00">31/___t___</text>
</g>
<!-- lustige: 1&#45;&#45;31/___t___ -->
<g id="edge50" class="edge">
<title>lustige: 1&#45;&#45;31/___t___</title>
<path fill="none" stroke="black" d="M233.76,-1025.98C244.94,-1051.42 265.25,-1097.66 276.46,-1123.18"/>
</g>
<!-- Wörtern: 1 -->
<g id="node62" class="node">
<title>Wörtern: 1</title>
<ellipse fill="none" stroke="black" cx="320.59" cy="-1284" rx="61.19" ry="18"/>
<text text-anchor="middle" x="320.59" y="-1280.3" font-family="Times,serif" font-size="14.00">Wörtern: 1</text>
</g>
<!-- Wörtern: 1&#45;&#45;29/______n -->
<g id="edge51" class="edge">
<title>Wörtern: 1&#45;&#45;29/______n</title>
<path fill="none" stroke="black" d="M326.05,-1301.97C334.6,-1330.09 351.05,-1384.21 359.63,-1412.42"/>
</g>
<!-- Wörtern: 1&#45;&#45;31/___t___ -->
<g id="edge52" class="edge">
<title>Wörtern: 1&#45;&#45;31/___t___</title>
<path fill="none" stroke="black" d="M316.01,-1265.92C309.09,-1238.62 296.04,-1187.15 289.08,-1159.67"/>
</g>
<!-- Apotheke: 1 -->
<g id="node63" class="node">
<title>Apotheke: 1</title>
<ellipse fill="none" stroke="black" cx="1100.64" cy="-1053" rx="65.79" ry="18"/>
<text text-anchor="middle" x="1100.64" y="-1049.3" font-family="Times,serif" font-size="14.00">Apotheke: 1</text>
</g>
<!-- 34/_____e__ -->
<g id="node64" class="node">
<title>34/_____e__</title>
<ellipse fill="none" stroke="black" cx="1150.36" cy="-1189.23" rx="61.99" ry="18"/>
<text text-anchor="middle" x="1150.36" y="-1185.53" font-family="Times,serif" font-size="14.00">34/_____e__</text>
</g>
<!-- Apotheke: 1&#45;&#45;34/_____e__ -->
<g id="edge53" class="edge">
<title>Apotheke: 1&#45;&#45;34/_____e__</title>
<path fill="none" stroke="black" d="M1107.25,-1071.09C1116.75,-1097.15 1134.21,-1144.97 1143.73,-1171.06"/>
</g>
<!-- blättert: 1 -->
<g id="node65" class="node">
<title>blättert: 1</title>
<ellipse fill="none" stroke="black" cx="1160.87" cy="-1333.63" rx="57.69" ry="18"/>
<text text-anchor="middle" x="1160.87" y="-1329.93" font-family="Times,serif" font-size="14.00">blättert: 1</text>
</g>
<!-- blättert: 1&#45;&#45;34/_____e__ -->
<g id="edge55" class="edge">
<title>blättert: 1&#45;&#45;34/_____e__</title>
<path fill="none" stroke="black" d="M1159.56,-1315.63C1157.55,-1287.96 1153.71,-1235.26 1151.69,-1207.45"/>
</g>
<!-- 33/_______t -->
<g id="node66" class="node">
<title>33/_______t</title>
<ellipse fill="none" stroke="black" cx="1160.58" cy="-1478.1" rx="59.59" ry="18"/>
<text text-anchor="middle" x="1160.58" y="-1474.4" font-family="Times,serif" font-size="14.00">33/_______t</text>
</g>
<!-- blättert: 1&#45;&#45;33/_______t -->
<g id="edge54" class="edge">
<title>blättert: 1&#45;&#45;33/_______t</title>
<path fill="none" stroke="black" d="M1160.84,-1351.64C1160.78,-1379.32 1160.67,-1432.05 1160.62,-1459.87"/>
</g>
<!-- gebracht: 1 -->
<g id="node67" class="node">
<title>gebracht: 1</title>
<ellipse fill="none" stroke="black" cx="1156.72" cy="-1622.8" rx="63.89" ry="18"/>
<text text-anchor="middle" x="1156.72" y="-1619.1" font-family="Times,serif" font-size="14.00">gebracht: 1</text>
</g>
<!-- gebracht: 1&#45;&#45;33/_______t -->
<g id="edge56" class="edge">
<title>gebracht: 1&#45;&#45;33/_______t</title>
<path fill="none" stroke="black" d="M1157.2,-1604.76C1157.94,-1577.04 1159.35,-1524.23 1160.09,-1496.36"/>
</g>
<!-- 36/__b_____ -->
<g id="node68" class="node">
<title>36/__b_____</title>
<ellipse fill="none" stroke="black" cx="1112.12" cy="-1760.78" rx="61.99" ry="18"/>
<text text-anchor="middle" x="1112.12" y="-1757.08" font-family="Times,serif" font-size="14.00">36/__b_____</text>
</g>
<!-- gebracht: 1&#45;&#45;36/__b_____ -->
<g id="edge57" class="edge">
<title>gebracht: 1&#45;&#45;36/__b_____</title>
<path fill="none" stroke="black" d="M1150.89,-1640.83C1142.34,-1667.28 1126.5,-1716.29 1117.95,-1742.73"/>
</g>
<!-- richtige: 1 -->
<g id="node69" class="node">
<title>richtige: 1</title>
<ellipse fill="none" stroke="black" cx="778.49" cy="-354.28" rx="58.49" ry="18"/>
<text text-anchor="middle" x="778.49" y="-350.58" font-family="Times,serif" font-size="14.00">richtige: 1</text>
</g>
<!-- 35/___h____ -->
<g id="node70" class="node">
<title>35/___h____</title>
<ellipse fill="none" stroke="black" cx="920.91" cy="-333" rx="61.99" ry="18"/>
<text text-anchor="middle" x="920.91" y="-329.3" font-family="Times,serif" font-size="14.00">35/___h____</text>
</g>
<!-- richtige: 1&#45;&#45;35/___h____ -->
<g id="edge58" class="edge">
<title>richtige: 1&#45;&#45;35/___h____</title>
<path fill="none" stroke="black" d="M831.12,-346.42C842.37,-344.73 854.29,-342.95 865.64,-341.26"/>
</g>
<!-- Buchstaben: 1 -->
<g id="node71" class="node">
<title>Buchstaben: 1</title>
<ellipse fill="none" stroke="black" cx="77.34" cy="-1098" rx="77.19" ry="18"/>
<text text-anchor="middle" x="77.34" y="-1094.3" font-family="Times,serif" font-size="14.00">Buchstaben: 1</text>
</g>
<!-- 37/_______b__ -->
<g id="node72" class="node">
<title>37/_______b__</title>
<ellipse fill="none" stroke="black" cx="116.38" cy="-1237.51" rx="70.69" ry="18"/>
<text text-anchor="middle" x="116.38" y="-1233.81" font-family="Times,serif" font-size="14.00">37/_______b__</text>
</g>
<!-- Buchstaben: 1&#45;&#45;37/_______b__ -->
<g id="edge59" class="edge">
<title>Buchstaben: 1&#45;&#45;37/_______b__</title>
<path fill="none" stroke="black" d="M82.45,-1116.24C89.93,-1142.98 103.79,-1192.53 111.27,-1219.27"/>
</g>
<!-- Geschichte: 1 -->
<g id="node73" class="node">
<title>Geschichte: 1</title>
<ellipse fill="none" stroke="black" cx="1018.44" cy="-399.28" rx="73.39" ry="18"/>
<text text-anchor="middle" x="1018.44" y="-395.58" font-family="Times,serif" font-size="14.00">Geschichte: 1</text>
</g>
<!-- 39/_e________ -->
<g id="node74" class="node">
<title>39/_e________</title>
<ellipse fill="none" stroke="black" cx="1160.86" cy="-378" rx="70.39" ry="18"/>
<text text-anchor="middle" x="1160.86" y="-374.3" font-family="Times,serif" font-size="14.00">39/_e________</text>
</g>
<!-- Geschichte: 1&#45;&#45;39/_e________ -->
<g id="edge60" class="edge">
<title>Geschichte: 1&#45;&#45;39/_e________</title>
<path fill="none" stroke="black" d="M1081.33,-389.88C1087.58,-388.95 1093.93,-388 1100.17,-387.07"/>
</g>
<!-- vorgegeben: 1 -->
<g id="node75" class="node">
<title>vorgegeben: 1</title>
<ellipse fill="none" stroke="black" cx="109.03" cy="-1382.04" rx="77.19" ry="18"/>
<text text-anchor="middle" x="109.03" y="-1378.34" font-family="Times,serif" font-size="14.00">vorgegeben: 1</text>
</g>
<!-- vorgegeben: 1&#45;&#45;37/_______b__ -->
<g id="edge61" class="edge">
<title>vorgegeben: 1&#45;&#45;37/_______b__</title>
<path fill="none" stroke="black" d="M109.94,-1364.03C111.35,-1336.34 114.03,-1283.58 115.45,-1255.75"/>
</g>
<!-- 38/______e___ -->
<g id="node76" class="node">
<title>38/______e___</title>
<ellipse fill="none" stroke="black" cx="89.64" cy="-1525" rx="70.39" ry="18"/>
<text text-anchor="middle" x="89.64" y="-1521.3" font-family="Times,serif" font-size="14.00">38/______e___</text>
</g>
<!-- vorgegeben: 1&#45;&#45;38/______e___ -->
<g id="edge62" class="edge">
<title>vorgegeben: 1&#45;&#45;38/______e___</title>
<path fill="none" stroke="black" d="M106.57,-1400.15C102.86,-1427.5 95.87,-1479.06 92.14,-1506.59"/>
</g>
<!-- Leerzeichen: 1 -->
<g id="node77" class="node">
<title>Leerzeichen: 1</title>
<ellipse fill="none" stroke="black" cx="1227.78" cy="-514.67" rx="78.79" ry="18"/>
<text text-anchor="middle" x="1227.78" y="-510.97" font-family="Times,serif" font-size="14.00">Leerzeichen: 1</text>
</g>
<!-- 41/__________n -->
<g id="node78" class="node">
<title>41/__________n</title>
<ellipse fill="none" stroke="black" cx="1080.01" cy="-509.74" rx="75.29" ry="18"/>
<text text-anchor="middle" x="1080.01" y="-506.04" font-family="Times,serif" font-size="14.00">41/__________n</text>
</g>
<!-- Leerzeichen: 1&#45;&#45;41/__________n -->
<g id="edge63" class="edge">
<title>Leerzeichen: 1&#45;&#45;41/__________n</title>
<path fill="none" stroke="black" d="M1149.57,-512.06C1149.43,-512.06 1149.29,-512.05 1149.15,-512.05"/>
</g>
<!-- 43/_e_________ -->
<g id="node79" class="node">
<title>43/_e_________</title>
<ellipse fill="none" stroke="black" cx="1383.52" cy="-515.78" rx="74.99" ry="18"/>
<text text-anchor="middle" x="1383.52" y="-512.08" font-family="Times,serif" font-size="14.00">43/_e_________</text>
</g>
<!-- Leerzeichen: 1&#45;&#45;43/_e_________ -->
<g id="edge64" class="edge">
<title>Leerzeichen: 1&#45;&#45;43/_e_________</title>
<path fill="none" stroke="black" d="M1306.56,-515.23C1307.16,-515.23 1307.77,-515.24 1308.37,-515.24"/>
</g>
<!-- Reihenfolge: 1 -->
<g id="node80" class="node">
<title>Reihenfolge: 1</title>
<ellipse fill="none" stroke="black" cx="1476.52" cy="-642.59" rx="77.19" ry="18"/>
<text text-anchor="middle" x="1476.52" y="-638.89" font-family="Times,serif" font-size="14.00">Reihenfolge: 1</text>
</g>
<!-- Reihenfolge: 1&#45;&#45;43/_e_________ -->
<g id="edge66" class="edge">
<title>Reihenfolge: 1&#45;&#45;43/_e_________</title>
<path fill="none" stroke="black" d="M1463.39,-624.69C1445.67,-600.52 1414.27,-557.71 1396.58,-533.59"/>
</g>
<!-- 40/__________e -->
<g id="node81" class="node">
<title>40/__________e</title>
<ellipse fill="none" stroke="black" cx="1576.2" cy="-752.23" rx="74.99" ry="18"/>
<text text-anchor="middle" x="1576.2" y="-748.53" font-family="Times,serif" font-size="14.00">40/__________e</text>
</g>
<!-- Reihenfolge: 1&#45;&#45;40/__________e -->
<g id="edge65" class="edge">
<title>Reihenfolge: 1&#45;&#45;40/__________e</title>
<path fill="none" stroke="black" d="M1492.53,-660.21C1511.02,-680.55 1541.28,-713.82 1559.9,-734.3"/>
</g>
<!-- Satzzeichen: 1 -->
<g id="node82" class="node">
<title>Satzzeichen: 1</title>
<ellipse fill="none" stroke="black" cx="934.46" cy="-500.33" rx="77.99" ry="18"/>
<text text-anchor="middle" x="934.46" y="-496.63" font-family="Times,serif" font-size="14.00">Satzzeichen: 1</text>
</g>
<!-- Satzzeichen: 1&#45;&#45;41/__________n -->
<g id="edge67" class="edge">
<title>Satzzeichen: 1&#45;&#45;41/__________n</title>
<path fill="none" stroke="black" d="M1009.8,-505.2C1009.93,-505.21 1010.07,-505.22 1010.21,-505.23"/>
</g>
<!-- 42/_a_________ -->
<g id="node83" class="node">
<title>42/_a_________</title>
<ellipse fill="none" stroke="black" cx="794.74" cy="-460.47" rx="74.99" ry="18"/>
<text text-anchor="middle" x="794.74" y="-456.77" font-family="Times,serif" font-size="14.00">42/_a_________</text>
</g>
<!-- Satzzeichen: 1&#45;&#45;42/_a_________ -->
<g id="edge68" class="edge">
<title>Satzzeichen: 1&#45;&#45;42/_a_________</title>
<path fill="none" stroke="black" d="M885.2,-486.28C871.53,-482.38 856.71,-478.15 843.09,-474.26"/>
</g>
<!-- Zeitschrift: 1 -->
<g id="node84" class="node">
<title>Zeitschrift: 1</title>
<ellipse fill="none" stroke="black" cx="1464.51" cy="-378" rx="71.49" ry="18"/>
<text text-anchor="middle" x="1464.51" y="-374.3" font-family="Times,serif" font-size="14.00">Zeitschrift: 1</text>
</g>
<!-- Zeitschrift: 1&#45;&#45;43/_e_________ -->
<g id="edge69" class="edge">
<title>Zeitschrift: 1&#45;&#45;43/_e_________</title>
<path fill="none" stroke="black" d="M1453.93,-396.01C1438.4,-422.42 1409.64,-471.35 1394.11,-497.76"/>
</g>
</g>
</svg>
